<svg width="80" height="80" viewBox="0 0 80 80" fill="none" xmlns="http://www.w3.org/2000/svg">
<path d="M71.9539 32.308C72.1441 33.7484 71.6987 35.3466 71.476 36.9614C71.4528 37.1275 71.4575 37.3018 71.4575 37.4678C71.4575 39.8631 71.4389 42.2541 71.4575 44.6493C71.4899 47.9578 70.6178 51.0587 69.1054 54.0682C67.31 57.6465 64.7723 60.7267 61.5573 63.3502C58.3052 66.0027 54.6495 68.0576 50.2933 68.975C47.5376 69.5561 44.8329 69.3195 42.1653 68.5889C38.2823 67.5221 34.8585 65.654 31.5507 63.6034C28.2198 61.5361 24.9027 59.4606 21.3722 57.6631C18.932 56.4178 16.3943 55.3053 14.1814 53.7237C11.9453 52.1214 10.3494 50.1039 9.30558 47.7295C8.28494 45.3882 7.88133 42.9432 8.02978 40.4442C8.18752 37.8373 8.82773 35.3134 10.1731 32.9763C11.4628 30.7347 13.184 28.7837 15.3319 27.1315C16.6449 26.1228 18.0784 25.276 19.4794 24.3876C20.4398 23.7774 21.2377 22.9928 21.9985 22.1958C23.5109 20.6059 25.1207 19.0991 26.7538 17.6088C28.4053 16.102 30.2007 14.757 32.0147 13.412C33.6569 12.1957 35.3224 11.0417 37.1642 10.0953C39.3354 8.97862 41.6318 8.26047 44.1695 8.08197C46.387 7.92423 48.5721 7.96574 50.7201 8.45973C53.1603 9.02013 55.6098 9.60959 57.7532 10.8632C59.9522 12.1501 61.9795 13.6154 63.7656 15.3714C65.1759 16.7537 66.4656 18.1941 67.5559 19.784C69.4951 22.6068 71.0028 25.5915 71.7776 28.8418C72.0327 29.9128 71.9724 31.0128 71.9539 32.308Z" fill="#E9EFE2"/>
<path d="M20.2161 43.6066C20.2161 42.0308 20.2506 40.4509 20.2074 38.8752C20.1211 35.3681 20.0002 31.865 19.9527 28.3579C19.9354 27.0634 20.0002 25.7772 20.0261 24.4868C20.0477 23.3122 20.4795 23.1923 21.6194 23.2006C22.198 23.2047 22.7895 23.2585 23.3768 23.2667C24.3958 23.2833 25.0262 23.6927 25.3803 24.6233C25.5357 25.0286 25.635 25.4504 25.7689 25.8599C25.8811 26.2032 26.0538 26.4223 26.4986 26.2611C26.6886 26.1907 26.9433 26.1701 27.1333 26.2321C27.958 26.4885 28.8 26.4141 29.6377 26.4306C31.2051 26.4637 32.7681 26.5299 34.3355 26.5257C36.7233 26.5257 39.0982 26.2983 41.473 26.1163C42.5654 26.0336 43.6578 25.9881 44.7459 25.8847C45.113 25.8516 45.3979 25.9922 45.3893 26.4265C45.3807 26.7904 45.6009 26.898 45.9593 26.8897C48.2909 26.8359 50.6183 26.807 52.9499 26.7491C53.6105 26.7325 54.2539 26.5175 54.9232 26.5257C55.2859 26.5299 55.2988 26.2652 55.2816 26.0046C55.2384 25.3181 55.0527 24.6316 55.2729 23.9409C55.4586 23.3536 56.0027 23.0351 56.5424 23.3329C57.4232 23.8168 58.3343 23.6017 59.2281 23.548C60.109 23.4983 60.9898 23.4735 61.8663 23.5149C62.5874 23.548 62.9242 23.9533 62.9113 24.7515C62.8897 26.29 62.7558 27.8285 62.8119 29.3629C62.9156 32.0967 63.1358 34.8263 63.0322 37.5642C62.9156 40.728 62.7645 43.8919 62.6479 47.0599C62.527 50.4099 62.2334 53.7516 62.1643 57.1058C62.0822 61.1051 62.1643 65.1002 62.0995 69.0954C62.0909 69.4883 62.2593 69.8564 62.1599 70.2658C61.8922 71.3246 61.4389 71.6472 60.0399 71.8292C57.3671 72.1766 54.6943 71.8912 52.0173 71.8623C50.7867 71.8498 49.5647 71.7506 48.3298 71.7878C45.847 71.8581 43.3556 71.8953 40.8685 71.7423C39.4047 71.6513 37.9366 71.6141 36.4686 71.6058C32.8243 71.5893 29.1757 71.6141 25.5314 71.5934C24.3915 71.5893 23.2515 71.4197 22.2368 70.8986C20.8853 70.1997 20.1599 69.0334 19.9872 67.5941C19.6591 64.8562 19.6504 62.1059 19.8404 59.3556C19.8965 58.5326 19.9181 57.7096 19.9527 56.8866C20.052 54.5829 20.0174 52.271 20.134 49.9674C20.242 47.8457 20.1729 45.7282 20.2118 43.6107L20.2161 43.6066Z" fill="#BECEA9"/>
<path d="M37.8128 28.3983C35.0623 28.3859 31.9318 28.2535 28.8014 28.0592C27.1001 27.9558 26.4784 27.2031 26.7158 25.5777C26.936 24.0929 27.2038 22.6123 27.221 21.1028C27.2297 20.4493 27.5319 20.1557 28.2098 20.0399C28.987 19.9075 29.7729 19.9158 30.5544 19.9447C32.1348 20.0026 33.5985 19.4733 35.1012 19.1341C35.4207 19.0638 35.4984 18.795 35.5848 18.5468C35.9388 17.546 36.4138 16.6072 36.9665 15.6932C38.0632 13.8693 40.5158 13.2613 42.3509 13.8403C43.0806 14.0719 43.6419 14.4855 43.9096 15.1845C44.2767 16.1522 44.7041 17.1035 44.5703 18.1788C44.4796 18.9108 44.2378 18.9976 43.4778 19.0638C42.6229 19.1341 42.2472 18.6875 41.8327 18.1415C41.2282 17.3516 40.2956 17.0745 39.3715 16.8305C38.9527 16.7188 38.6591 16.9959 38.5123 17.3557C38.4216 17.5791 38.3914 17.8272 38.3612 18.0712C38.318 18.4352 38.3612 18.704 38.78 18.9315C39.3327 19.2334 39.799 19.6883 40.2826 20.0978C40.4899 20.2756 40.6626 20.3501 40.9562 20.2591C42.7783 19.6925 44.648 19.6263 46.5392 19.8083C48.5945 20.0068 50.6498 19.953 52.6965 19.709C52.852 19.6925 53.0074 19.6759 53.1628 19.6635C54.5273 19.5643 55.1491 19.9944 55.2354 21.2765C55.352 23.0342 55.5204 24.8002 55.0757 26.5455C54.8339 27.4926 54.6957 27.6125 53.7026 27.6869C48.5427 28.084 43.3785 28.3032 37.8171 28.3859L37.8128 28.3983Z" fill="#7C9A57"/>
<path d="M29.1593 39.4072C29.7465 39.4196 30.3079 39.1963 30.8217 38.9234C30.9167 38.8737 31.0117 38.82 31.0808 38.7414C31.1671 38.6421 31.206 38.5098 31.2362 38.3857C31.301 38.1127 31.3442 37.8356 31.3571 37.5544C31.4132 36.5784 30.7612 36.0283 29.8372 35.7388C29.2413 35.5527 28.5721 35.5072 28.1576 36.0242C27.2897 37.1077 27.389 39.3741 29.1593 39.4114V39.4072Z" fill="#FDF5EE"/>
<path d="M40.7614 21.624C41.3486 21.6364 41.9099 21.4131 42.4237 21.1401C42.5187 21.0905 42.6137 21.0368 42.6828 20.9582C42.7692 20.8589 42.808 20.7266 42.8383 20.6025C42.903 20.3295 42.9462 20.0524 42.9592 19.7712C43.0153 18.7952 42.3633 18.2451 41.4393 17.9556C40.8434 17.7695 40.1741 17.724 39.7596 18.241C38.8917 19.3245 38.991 21.5909 40.7614 21.6282V21.624Z" fill="#FDF5EE"/>
<path d="M29.8148 48.3923C30.402 48.4048 30.9633 48.1814 31.4771 47.9085C31.5721 47.8588 31.6671 47.8051 31.7362 47.7265C31.8226 47.6272 31.8614 47.4949 31.8917 47.3708C31.9564 47.0978 31.9996 46.8207 32.0126 46.5395C32.0687 45.5635 31.4167 45.0134 30.4927 44.7239C29.8968 44.5378 29.2275 44.4923 28.813 45.0093C27.9451 46.0928 28.0444 48.3593 29.8148 48.3965V48.3923Z" fill="#FDF5EE"/>
<path d="M30.2617 58.0525C30.8489 58.0649 31.4102 57.8416 31.924 57.5686C32.019 57.519 32.114 57.4652 32.1831 57.3866C32.2695 57.2874 32.3083 57.155 32.3386 57.031C32.4033 56.758 32.4465 56.4809 32.4595 56.1997C32.5156 55.2236 31.8636 54.6736 30.9396 54.3841C30.3437 54.1979 29.6744 54.1525 29.2599 54.6694C28.392 55.753 28.4913 58.0194 30.2617 58.0566V58.0525Z" fill="#FDF5EE"/>
<path d="M49.5733 37.7987C50.0266 37.7615 50.5577 37.7573 50.8513 38.0923C51.1838 38.477 50.9722 39.1015 50.5534 39.3992C50.1346 39.697 49.5862 39.7466 49.0637 39.788C47.6 39.9038 46.1362 40.0031 44.6725 40.1023C42.8374 40.2264 41.0023 40.3505 39.1628 40.3463C38.2043 40.3463 37.2457 40.305 36.2915 40.2098C35.6049 40.1437 34.3484 40.1726 33.7785 39.759C33.0617 39.2421 33.9123 38.8533 34.4736 38.7913C35.3588 38.692 36.3217 38.812 37.2198 38.7913C39.1499 38.7458 41.0757 38.5928 42.9971 38.4149C45.1906 38.2123 47.3798 37.9683 49.5776 37.7945L49.5733 37.7987Z" fill="#FDF5EE"/>
<path d="M49.0606 40.8306C49.5139 40.7892 50.045 40.7768 50.343 41.1077C50.6841 41.4882 50.4811 42.1168 50.0666 42.4187C49.6521 42.7207 49.1037 42.7827 48.5856 42.8323C47.1261 42.9688 45.6624 43.0929 44.2029 43.2128C42.3722 43.3658 40.5371 43.5147 38.6976 43.5354C37.7391 43.5478 36.7805 43.523 35.8219 43.4444C35.1311 43.3865 33.8789 43.4361 33.3003 43.0308C32.5749 42.5221 33.4212 42.1251 33.9782 42.0507C34.8634 41.9349 35.8263 42.0424 36.7244 42.0093C38.6545 41.9349 40.5759 41.757 42.4931 41.5502C44.6822 41.3145 46.8671 41.0415 49.0606 40.8347V40.8306Z" fill="#FDF5EE"/>
<path d="M49.5626 47.7914C50.016 47.7748 50.5471 47.7873 50.8321 48.0644C51.1559 48.3828 50.9314 48.8791 50.5039 49.1066C50.0765 49.334 49.5281 49.3589 49.0056 49.3795C47.5419 49.4333 46.0738 49.4747 44.61 49.5119C42.7749 49.5615 40.9355 49.6111 39.0961 49.5574C38.1375 49.5284 37.179 49.4705 36.229 49.3713C35.5425 49.2968 34.2903 49.2885 33.7247 48.9411C33.0209 48.5069 33.8801 48.2174 34.4414 48.1802C35.3309 48.1223 36.2895 48.2463 37.1876 48.2546C39.1177 48.2711 41.0478 48.2008 42.9692 48.114C45.167 48.0106 47.3605 47.8782 49.5626 47.7955V47.7914Z" fill="#FDF5EE"/>
<path d="M48.5916 50.7195C49.0061 50.7029 49.4897 50.7112 49.7444 50.9883C50.0381 51.3067 49.8308 51.803 49.4422 52.0305C49.0536 52.258 48.5527 52.2869 48.0777 52.3076C46.7435 52.3655 45.4093 52.4069 44.0794 52.4524C42.4084 52.5061 40.7373 52.5599 39.062 52.5103C38.1898 52.4854 37.3176 52.4275 36.454 52.3324C35.8279 52.2621 34.688 52.2538 34.1785 51.9064C33.5394 51.4722 34.3253 51.1827 34.8348 51.1454C35.6422 51.0875 36.5145 51.2075 37.3305 51.2116C39.0879 51.224 40.841 51.1496 42.594 51.0545C44.5932 50.9469 46.5924 50.8063 48.5916 50.7195Z" fill="#FDF5EE"/>
<path d="M49.6425 60.0327C50.057 59.9955 50.5363 59.9831 50.8083 60.2477C51.1192 60.5497 50.9335 61.0584 50.5579 61.3024C50.1822 61.5464 49.6813 61.6001 49.2107 61.6415C47.8808 61.7614 46.5509 61.8648 45.221 61.9682C43.5543 62.1006 41.8876 62.2329 40.2122 62.2577C39.34 62.2701 38.4678 62.2577 37.5956 62.1998C36.9695 62.1585 35.8296 62.1998 35.2985 61.8814C34.6379 61.4761 35.4064 61.1535 35.9159 61.0914C36.7191 60.9963 37.5999 61.0749 38.4117 61.0418C40.1647 60.9715 41.9178 60.8185 43.6622 60.6448C45.6528 60.4463 47.6433 60.2147 49.6382 60.0368L49.6425 60.0327Z" fill="#FDF5EE"/>
<path d="M49.0967 57.9948C49.5112 57.9948 49.9905 58.0196 50.241 58.305C50.5216 58.6317 50.2928 59.1239 49.8955 59.3348C49.4983 59.5457 48.9974 59.5581 48.5224 59.5623C47.1882 59.5705 45.854 59.5623 44.5198 59.5623C42.8488 59.554 41.1734 59.5499 39.5067 59.4382C38.6345 59.3803 37.7666 59.2934 36.9074 59.1611C36.2856 59.066 35.1457 59.0205 34.6491 58.6524C34.0273 58.1933 34.8218 57.9328 35.3356 57.9162C36.1474 57.8873 37.0153 58.0403 37.8271 58.0734C39.5801 58.1478 41.3375 58.1396 43.0949 58.1106C45.0984 58.0775 47.0975 58.0113 49.1054 57.9989L49.0967 57.9948Z" fill="#FDF5EE"/>
<path d="M25.0056 25.3096C25.4156 24.0703 25.2904 22.8186 25.2214 21.567C25.1869 20.9473 25.1437 20.3318 25.1394 19.7122C25.1351 18.886 25.4501 18.5349 26.3088 18.4688C27.8708 18.3448 29.4328 18.2622 30.9948 18.1383C31.7154 18.0805 32.4274 17.9483 33.148 17.8656C33.5622 17.8202 33.7478 17.6054 33.8384 17.2253C33.9679 16.6801 34.1232 16.1348 34.3217 15.606C35.3616 12.8094 37.8125 11.5494 40.8416 12.2434C43.7758 12.9126 45.3464 14.8129 45.3594 17.6963C45.3594 18.3035 45.1954 18.8736 44.8459 19.4519C45.7607 19.5511 46.5676 19.2826 47.3917 19.2082C49.4414 19.0182 51.491 18.9025 53.5492 19.0182C54.2267 19.0554 54.5546 19.4147 54.6927 20.022C54.8566 20.7573 54.9688 21.505 54.9732 22.2527C54.9732 22.8104 55.2105 22.893 55.7067 22.86C56.7207 22.7897 57.739 22.7567 58.7574 22.7278C60.3928 22.6782 61.0616 23.2193 61.2299 24.7767C61.739 29.4116 61.6873 34.0631 61.5664 38.7145C61.3075 48.5751 60.6646 58.4233 60.4791 68.288C60.4791 68.511 60.4661 68.7382 60.4359 68.9613C60.341 69.6677 59.9785 69.9858 59.245 70.0354C55.862 70.2791 52.4791 70.2336 49.0918 70.0395C43.5342 69.7214 37.9678 69.9362 32.4058 69.9238C29.2516 69.9197 26.0973 69.8536 22.9517 69.6801C21.4587 69.5975 20.7511 68.9489 20.5914 67.532C20.3153 65.103 20.3714 62.6657 20.4447 60.2285C20.7122 51.6444 20.9798 43.0603 21.2602 34.4762C21.2948 33.3732 21.4458 32.2703 21.4933 31.1673C21.5321 30.2337 22.2484 29.7504 22.9603 29.6512C24.6648 29.4116 26.3778 29.2175 28.1081 29.2629C29.0747 29.2877 29.5105 29.6347 29.7996 30.5394C30.1922 31.7498 30.257 33.0097 30.3433 34.2614C30.3778 34.7406 30.477 35.071 31.0035 35.3065C31.8751 35.6948 32.2462 36.5127 32.5914 37.3224C33.0617 38.4254 32.8287 38.2684 34.1016 38.3014C39.2796 38.446 44.4403 38.1775 49.5967 37.7975C49.8297 37.7809 50.067 37.7768 50.3 37.7975C51.0854 37.8677 51.3572 38.1403 51.4306 38.8963C51.573 40.3834 50.9818 41.2468 49.4716 41.6723C47.7326 42.1597 45.9376 42.3043 44.1426 42.4613C41.0358 42.7298 37.9247 42.7752 34.8093 42.8083C33.9031 42.8166 33.0099 42.9116 32.2289 43.4279C31.4479 43.9402 31.3012 44.6631 31.7888 45.4273C32.0434 45.8239 32.2634 46.2494 32.4231 46.6914C32.5957 47.1623 32.8848 47.3689 33.3983 47.4267C35.6032 47.6787 37.8168 47.6498 40.0304 47.5754C43.4781 47.4597 46.9214 47.373 50.3691 47.5134C51.6204 47.563 52.0303 48.1909 51.6032 49.3104C51.1501 50.4918 50.1835 51.0578 49.0012 51.3635C47.3961 51.7766 45.7434 51.7766 44.0994 51.7931C41.2213 51.8179 38.3432 51.6733 35.4608 51.76C34.8265 51.7807 34.5633 51.9873 34.3864 52.5738C34.0024 53.8586 33.8859 55.1929 33.4587 56.4652C33.3638 56.742 33.5277 56.8576 33.7348 56.932C34.0283 57.0435 34.3389 57.0683 34.6539 57.089C38.8395 57.3492 43.0336 57.3368 47.2235 57.312C48.0476 57.3079 48.8718 57.2831 49.6916 57.3286C50.6237 57.3781 51.1717 57.7912 51.314 58.4563C51.4866 59.2577 51.1371 59.9724 50.3346 60.3772C49.4672 60.8109 48.5093 60.9142 47.5557 61.0299C44.108 61.4471 40.6388 61.4265 37.1739 61.4884C36.4101 61.5008 35.6464 61.5173 34.8869 61.5917C34.4468 61.633 34.0196 61.5504 33.9635 61.0382C33.9074 60.5383 34.2828 60.3442 34.7316 60.2905C35.1976 60.2367 35.668 60.1954 36.1383 60.1954C39.0984 60.1954 42.0541 60.1128 45.0099 60.0013C46.4209 59.9476 47.8189 59.77 49.1954 59.4684C49.3292 59.4395 49.4629 59.4147 49.5881 59.361C49.8728 59.2453 50.2741 59.1379 50.1878 58.7827C50.0972 58.415 49.7175 58.6629 49.4802 58.6711C44.4058 58.824 39.3357 58.7413 34.2699 58.4315C33.7996 58.4026 33.3292 58.3117 32.9366 58.0432C32.6863 57.8697 32.5353 57.9275 32.3411 58.1134C31.7802 58.6629 31.0682 58.8901 30.2829 58.9685C28.7252 59.1214 27.5601 58.3159 27.2322 56.8535C27.0811 56.1678 27.0768 55.4738 27.1545 54.7798C27.2581 53.8916 27.9916 53.2926 29.0358 53.2472C30.4296 53.1852 31.6119 53.6148 32.4792 54.7385C32.6647 54.6104 32.6518 54.4328 32.6777 54.2799C32.8503 53.3339 33.1523 52.4251 33.4457 51.5122C33.6313 50.938 34.0153 50.6075 34.6539 50.5125C35.4134 50.401 36.1771 50.4299 36.9409 50.4216C40.0951 50.3803 43.245 50.5827 46.3993 50.4464C47.245 50.4092 48.0821 50.3225 48.8933 50.0994C49.4629 49.9424 49.998 49.707 50.3475 49.2113C50.5546 48.918 50.5632 48.7527 50.1059 48.761C49.3248 48.7775 48.5395 48.7816 47.7542 48.761C43.7974 48.6536 39.8405 48.9469 35.888 48.8477C35.0682 48.8271 34.2483 48.7238 33.4285 48.6866C32.3411 48.6412 31.6248 48.1537 31.3098 47.1417C31.2624 46.9888 31.2235 46.8194 31.0596 46.712C30.8697 46.8566 30.874 47.0756 30.8093 47.2656C30.5374 48.067 30.0283 48.6908 29.3034 49.1493C28.4274 49.7028 27.5687 49.5004 27.0768 48.6164C26.4684 47.5176 26.408 46.3485 26.7964 45.1795C27.1157 44.2128 28.4619 43.651 29.696 43.9773C30.1879 44.1054 30.3562 44.0393 30.559 43.5643C31.1027 42.2919 32.298 41.821 33.6011 41.6723C35.901 41.4038 38.2181 41.5731 40.5266 41.4492C43.2235 41.3046 45.929 41.2179 48.5784 40.6643C48.9581 40.5858 49.3248 40.4495 49.6873 40.3132C49.9505 40.2141 50.1447 40.0323 50.2396 39.7638C50.4511 39.1731 50.3259 39.012 49.6916 39.0698C44.3022 39.5614 38.8999 39.6357 33.4889 39.5366C32.5957 39.5201 32.0002 39.1855 31.6852 38.3758C31.5342 37.9916 31.3573 37.6116 31.1674 37.2439C31.0164 36.9465 30.8395 36.6573 30.4511 36.4756C30.3648 37.2067 30.3044 37.8925 30.2009 38.5699C30.0801 39.3548 29.8557 40.0984 28.8891 40.3008C27.8535 40.5197 26.7359 40.1067 26.1966 39.3176C25.4544 38.2312 25.4587 37.0952 25.9851 35.9385C26.4037 35.0256 27.2883 34.8769 28.1815 34.7901C29.079 34.6992 29.0876 34.7158 29.0272 33.8565C28.9625 32.9229 28.915 31.9852 28.6734 31.0681C28.5741 30.6881 28.367 30.4898 27.9441 30.4857C26.3347 30.4774 24.7424 30.6716 23.1459 30.8327C22.7532 30.874 22.723 31.1136 22.7014 31.4275C22.3519 36.5953 22.3304 41.7714 22.106 46.9434C21.873 52.3384 21.6486 57.7334 21.5623 63.1367C21.5407 64.5784 21.5321 66.0242 21.7133 67.4618C21.8169 68.2921 21.9938 68.416 22.874 68.4532C29.6313 68.7465 36.3886 68.5276 43.1458 68.4615C46.615 68.4284 50.0713 68.7589 53.5363 68.8043C55.2579 68.8291 56.9839 68.7961 58.7056 68.7052C59.0335 68.6887 59.1803 68.6184 59.1803 68.2549C59.2363 60.7903 59.7369 53.3381 59.9958 45.8776C60.2072 39.7679 60.5654 33.6582 60.1943 27.5444C60.1339 26.5737 60.0087 25.6029 59.9354 24.6321C59.9052 24.2314 59.7283 24.0868 59.3011 24.1075C58.0282 24.1653 56.7552 24.2025 55.4823 24.2273C55.1458 24.2356 55.1069 24.3719 55.1328 24.6445C55.1846 25.2766 55.2623 25.9045 55.1544 26.5489C55.0465 27.1727 54.7013 27.3833 54.0929 27.4494C51.9052 27.689 49.7132 27.6188 47.5169 27.5568C43.189 27.4288 38.8653 27.2925 34.5374 27.1603C33.3033 27.1231 32.0693 27.09 30.8438 26.9331C30.244 26.8546 29.778 26.5861 29.4846 26.0656C29.0143 25.2311 29.2947 24.4338 30.2354 24.029C31.0164 23.6944 31.8621 23.6201 32.6992 23.5457C34.6151 23.3722 36.5353 23.3639 38.4511 23.4052C43.3918 23.5168 48.3195 23.1533 53.2472 22.9508C53.5622 22.9384 53.7089 22.8517 53.6743 22.5212C53.6139 21.9429 53.5837 21.3604 53.5449 20.7821C53.5276 20.4971 53.4413 20.3649 53.0832 20.3814C50.7186 20.5012 48.3453 20.4186 45.998 20.8317C45.1695 20.9762 44.3108 20.9349 43.5169 20.5962C43.2925 20.5012 43.107 20.5425 42.8998 20.6169C42.326 20.8317 41.7262 20.9019 41.1134 20.8812C39.3573 20.8275 38.0067 19.3652 38.162 17.688C38.2828 16.3785 39.5342 15.7506 40.7294 16.4033C41.2904 16.709 41.6744 17.1799 42.011 17.6963C42.1965 17.9854 42.3907 18.2622 42.6625 18.4853C43.2278 18.9521 43.806 18.7827 43.888 18.0598C44.0174 16.8866 43.7154 15.226 42.2699 14.3667C41.1566 13.7017 39.9398 13.4042 38.6237 13.5488C37.0962 13.7182 36.1426 14.5815 35.6205 15.9117C35.3659 16.5603 35.1933 17.2336 35.0078 17.9028C34.805 18.6299 34.3519 19.043 33.5666 19.1999C31.4048 19.6296 29.2084 19.6254 27.0207 19.708C26.4771 19.7287 26.3476 19.8568 26.3778 20.3731C26.4814 22.0916 26.7057 23.8183 26.3217 25.5327C26.257 25.826 26.1836 26.1193 26.0585 26.3919C25.8341 26.8752 25.4501 27.1892 24.8676 27.1355C24.285 27.0818 23.9657 26.7059 23.8535 26.1854C23.7198 25.5616 23.6033 24.9337 23.5256 24.3017C23.4781 23.8927 23.2969 23.7729 22.8784 23.7977C21.627 23.8803 20.3757 23.9423 19.1243 23.9794C18.6583 23.9918 18.49 24.1282 18.4987 24.5991C18.5548 27.2801 18.5418 29.9611 18.6195 32.642C18.8093 39.3383 18.6152 46.0304 18.3606 52.7226C18.2009 56.9568 18.257 61.1993 18.2096 65.4376C18.2009 66.1894 18.421 66.9247 18.3476 67.6807C18.3131 68.0649 18.2613 68.4325 17.7737 68.4532C17.243 68.4739 17.1653 68.0897 17.1394 67.6848C16.8547 62.641 16.9064 57.5929 17.1092 52.5573C17.4544 44.06 17.3725 35.5709 17.1955 27.0777C17.174 25.9747 17.1524 24.8676 17.3509 23.7688C17.4501 23.2235 17.7177 22.9013 18.2657 22.8269C20.0521 22.5832 21.8557 22.5708 23.6594 22.5667C24.2592 22.5667 24.5353 22.9963 24.6389 23.525C24.7554 24.124 24.8719 24.7271 24.9841 25.3261L25.0056 25.3096ZM42.3777 26.0408C42.3777 26.0408 42.3777 26.0367 42.3777 26.0325C42.5935 26.0408 42.8092 26.0532 43.025 26.0614C46.2353 26.1358 49.4414 26.3713 52.656 26.2639C53.9203 26.2225 53.8815 26.1936 53.8556 24.9915C53.8426 24.4173 53.6614 24.281 53.0746 24.3141C48.7941 24.533 44.5137 24.8222 40.2202 24.7561C38.0282 24.723 35.8319 24.6652 33.6399 24.7891C32.7208 24.8428 31.806 24.9172 30.9128 25.1568C30.792 25.1898 30.6022 25.2105 30.6194 25.3798C30.6324 25.5285 30.8007 25.5575 30.9387 25.574C31.271 25.6112 31.5989 25.6649 31.9312 25.6731C35.4134 25.8012 38.8956 25.921 42.3821 26.0408H42.3777ZM28.4231 55.8001C28.4231 56.0397 28.4361 56.4156 28.5612 56.775C28.6647 57.0683 28.8417 57.2996 29.1523 57.4318C29.9679 57.7788 31.0854 57.5516 31.6766 56.9155C31.8104 56.7709 31.8967 56.6387 31.8406 56.4198C31.5601 55.3374 30.7661 54.6765 29.6054 54.598C28.5957 54.5278 28.4102 54.6972 28.4231 55.8042V55.8001ZM28.3843 36.0294C28.0304 36.0748 27.5385 36.0046 27.2063 36.3392C26.6367 36.9093 26.6842 38.0949 27.2796 38.6608C27.6464 39.012 28.1297 39.045 28.5914 38.95C28.9841 38.8674 28.8978 38.4749 28.9452 38.1982C29.0272 37.7024 29.079 37.1985 29.1308 36.6986C29.1955 36.017 29.1869 36.0129 28.3886 36.0294H28.3843ZM29.0013 45.1381C28.6086 45.2208 28.0218 45.1299 27.8578 45.7578C27.6852 46.4229 27.7198 47.0879 27.9873 47.7324C28.1599 48.1496 28.4102 48.2157 28.7899 47.9472C29.4414 47.4804 29.7047 46.8153 29.8773 46.0924C30.0628 45.3116 29.9333 45.1464 28.997 45.1423L29.0013 45.1381ZM41.5104 19.328C41.0832 18.8034 40.8157 18.2003 40.3022 17.7624C40.1081 17.5971 39.8621 17.4443 39.6205 17.593C39.3573 17.75 39.4694 18.035 39.5385 18.2581C39.7974 19.1215 40.4662 19.4891 41.5147 19.3321L41.5104 19.328Z" fill="#4E6137"/>
</svg>
