<?xml version="1.0" encoding="UTF-8"?>
<svg version="1.1" xmlns="http://www.w3.org/2000/svg" width="299" height="299">
<path d="M0 0 C1.08995773 -0.00855011 1.08995773 -0.00855011 2.20193481 -0.01727295 C3.7364967 -0.02667019 5.27107829 -0.03323579 6.80566406 -0.03710938 C9.09218309 -0.0467045 11.37775794 -0.07773065 13.6640625 -0.109375 C27.4706516 -0.20933769 40.77126072 1.72859364 54.0078125 5.765625 C54.82507813 6.01393066 55.64234375 6.26223633 56.484375 6.51806641 C95.18245945 18.89057327 126.08550133 47.09882373 144.75415039 82.7722168 C153.43964468 100.1554656 159.33842441 120.45440936 159.4609375 139.9453125 C159.46663757 140.67195099 159.47233765 141.39858948 159.47821045 142.14724731 C159.48760769 143.6818092 159.49417329 145.21639079 159.49804688 146.75097656 C159.507642 149.03749559 159.53866815 151.32307044 159.5703125 153.609375 C159.67027519 167.4159641 157.73234386 180.71657322 153.6953125 193.953125 C153.322854 195.17902344 153.322854 195.17902344 152.94287109 196.4296875 C140.57036423 235.12777195 112.36211377 266.03081383 76.6887207 284.69946289 C59.3054719 293.38495718 39.00652814 299.28373691 19.515625 299.40625 C18.78898651 299.41195007 18.06234802 299.41765015 17.31369019 299.42352295 C15.7791283 299.43292019 14.24454671 299.43948579 12.70996094 299.44335938 C10.42344191 299.4529545 8.13786706 299.48398065 5.8515625 299.515625 C-7.9550266 299.61558769 -21.25563572 297.67765636 -34.4921875 293.640625 C-35.71808594 293.2681665 -35.71808594 293.2681665 -36.96875 292.88818359 C-75.66683445 280.51567673 -106.56987633 252.30742627 -125.23852539 216.6340332 C-133.92401968 199.2507844 -139.82279941 178.95184064 -139.9453125 159.4609375 C-139.95101257 158.73429901 -139.95671265 158.00766052 -139.96258545 157.25900269 C-139.97198269 155.7244408 -139.97854829 154.18985921 -139.98242188 152.65527344 C-139.992017 150.36875441 -140.02304315 148.08317956 -140.0546875 145.796875 C-140.15465019 131.9902859 -138.21671886 118.68967678 -134.1796875 105.453125 C-133.93138184 104.63585937 -133.68307617 103.81859375 -133.42724609 102.9765625 C-121.05473923 64.27847805 -92.84648877 33.37543617 -57.1730957 14.70678711 C-39.7898469 6.02129282 -19.49090314 0.12251309 0 0 Z " fill="#E76943" transform="translate(139.7421875,-0.203125)"/>
<path d="M0 0 C0.6379248 0.20898926 1.27584961 0.41797852 1.93310547 0.63330078 C16.20920125 5.43516217 28.34336538 13.36199586 39 24 C39.69609375 24.68449219 40.3921875 25.36898437 41.109375 26.07421875 C54.81363204 40.44244173 61.41818216 59.72370432 61.21484375 79.40234375 C59.901954 101.3872794 49.41610986 119.7945003 34 135 C35.40578288 136.94807779 36.81175853 138.89601589 38.21801758 140.84375 C39.40852872 142.49307849 40.59846786 144.14282001 41.7878418 145.79296875 C44.38946456 149.39975586 46.99271704 153.00410845 49.64453125 156.57421875 C50.35996094 157.53972656 51.07539063 158.50523437 51.8125 159.5 C52.43769531 160.3353125 53.06289062 161.170625 53.70703125 162.03125 C55 164 55 164 55 166 C39.16577719 165.74974648 22.67655394 162.67655394 11 151 C6.01822209 151.30500681 1.68774173 152.67178668 -2.984375 154.37890625 C-5 155 -5 155 -8 155 C-8.33644531 155.85851562 -8.33644531 155.85851562 -8.6796875 156.734375 C-15.79371828 168.94188344 -36.0626708 175.90495913 -48.9140625 179.30859375 C-65.36351463 182.99410391 -84.09453779 182.58417963 -100.03515625 176.921875 C-102.75441381 175.99959653 -105.13607085 175.22138926 -108 175 C-110.1172364 176.13618936 -111.42445708 177.48611258 -113.06640625 179.234375 C-121.87407998 187.27693768 -135.70547816 188.3800026 -147 188 C-145.70801263 185.29779448 -144.29009636 182.84404924 -142.57421875 180.390625 C-142.10693359 179.71773437 -141.63964844 179.04484375 -141.15820312 178.3515625 C-140.67287109 177.65804687 -140.18753906 176.96453125 -139.6875 176.25 C-135.96620937 170.92374457 -132.39296505 165.54218273 -129 160 C-129.73347656 159.4534375 -130.46695313 158.906875 -131.22265625 158.34375 C-143.89732065 147.64783067 -151.59076306 130.34714854 -153 114 C-154.32381865 95.09586963 -147.57094836 77.81064643 -135.40673828 63.53808594 C-132.20128838 59.97889369 -128.79785503 57.31712745 -124.8125 54.625 C-119.206486 50.69070226 -116.88519448 46.79763189 -114.00048828 40.80273438 C-104.15552001 20.65911266 -83.68019969 7.20383115 -63 0 C-42.85634714 -5.93629227 -20.04538079 -6.65415433 0 0 Z " fill="#FEFEFE" transform="translate(195,58)"/>
<path d="M0 0 C6.44750048 5.30127818 6.44750048 5.30127818 7.1953125 9.421875 C7.46862237 14.85163112 6.50117475 18.13847331 2.8125 22.3125 C-1.26148798 25.91276845 -4.60572965 27.07010309 -9.9375 26.8359375 C-13.93894643 25.90504545 -16.6118203 23.42329322 -19.1875 20.3125 C-21.70949842 16.08644859 -22.23220159 12.11969827 -21.1875 7.3125 C-18.94460673 3.65013182 -16.33307544 0.05392472 -12.1640625 -1.38671875 C-7.4830034 -2.09905383 -4.25908153 -2.25480787 0 0 Z " fill="#E76C47" transform="translate(172.1875,127.6875)"/>
<path d="M0 0 C4.35050548 3.57708229 6.60952438 5.4857194 7.25 11.25 C6.95105925 16.54125134 5.20147866 20.05903145 1.25 23.625 C-3.17252593 26.68674872 -6.87319405 27.24163519 -12.1875 26.3125 C-16.39255444 23.88589903 -19.34404031 20.8187348 -21.1875 16.3125 C-22.07836122 12.11835692 -22.03377508 8.69436287 -19.76171875 4.984375 C-14.38655309 -1.41517983 -8.07604221 -4.27555176 0 0 Z " fill="#E76C47" transform="translate(207.1875,127.6875)"/>
<path d="M0 0 C6.44750048 5.30127818 6.44750048 5.30127818 7.1953125 9.421875 C7.46862237 14.85163112 6.50117475 18.13847331 2.8125 22.3125 C-1.26148798 25.91276845 -4.60572965 27.07010309 -9.9375 26.8359375 C-13.93894643 25.90504545 -16.6118203 23.42329322 -19.1875 20.3125 C-21.70949842 16.08644859 -22.23220159 12.11969827 -21.1875 7.3125 C-18.94460673 3.65013182 -16.33307544 0.05392472 -12.1640625 -1.38671875 C-7.4830034 -2.09905383 -4.25908153 -2.25480787 0 0 Z " fill="#E76C47" transform="translate(136.1875,127.6875)"/>
</svg>
