<svg width="80" height="80" viewBox="0 0 80 80" fill="none" xmlns="http://www.w3.org/2000/svg">
<path d="M45.9492 20.0479H26.5396" stroke="white" stroke-width="2" stroke-miterlimit="10" stroke-linecap="round" stroke-linejoin="round"/>
<path d="M54.4508 27.3574H19.4775" stroke="white" stroke-width="2" stroke-miterlimit="10" stroke-linecap="round" stroke-linejoin="round"/>
<path d="M45.9493 34.6221H19.4775" stroke="white" stroke-width="2" stroke-miterlimit="10" stroke-linecap="round" stroke-linejoin="round"/>
<path d="M78.7184 46.7903C78.7184 48.747 76.0195 50.164 75.2998 51.8508C74.5576 53.6051 75.4572 56.5064 74.1303 57.8558C72.8033 59.1828 69.902 58.3057 68.1252 59.0254C66.4159 59.7226 65.0215 62.444 63.0648 62.444C61.1081 62.444 59.6911 59.7451 58.0043 59.0254C56.25 58.2832 53.3487 59.1828 51.9993 57.8558C50.6723 56.5289 51.5495 53.6276 50.8297 51.8733C50.1325 50.164 47.4111 48.7695 47.4111 46.8128C47.4111 44.8561 50.11 43.4392 50.8297 41.7524C51.5719 39.9981 50.6723 37.0968 51.9993 35.7473C53.3262 34.4204 56.2275 35.2975 58.0043 34.5778C59.7136 33.8806 61.1081 31.1592 63.0648 31.1592C65.0215 31.1592 66.4384 33.8581 68.1252 34.5778C69.8795 35.32 72.7808 34.4204 74.1303 35.7473C75.4572 37.0743 74.5801 39.9756 75.2998 41.7524C76.0195 43.4167 78.7184 44.8336 78.7184 46.7903Z" stroke="#E76943" stroke-width="2" stroke-miterlimit="10" stroke-linecap="round" stroke-linejoin="round"/>
<path d="M69.947 41.6399C75.1424 50.029 66.3259 58.8454 57.9144 53.6725C57.2171 53.2452 56.6324 52.638 56.2051 51.9632C51.0097 43.5741 59.8261 34.7577 68.2377 39.9306C68.9349 40.3355 69.5196 40.9427 69.947 41.6399Z" stroke="#E76943" stroke-width="2" stroke-miterlimit="10" stroke-linecap="round" stroke-linejoin="round"/>
<path d="M55.5977 60.2402V75.7139L63.1771 70.8559L70.5541 75.7139V60.2402" stroke="#E76943" stroke-width="2" stroke-miterlimit="10" stroke-linecap="round" stroke-linejoin="round"/>
<path d="M71.4313 28.5499V7.31849C71.4313 5.63168 70.0818 4.28223 68.395 4.28223H4.29603C2.60922 4.28223 1.25977 5.63168 1.25977 7.31849V55.8538C1.25977 57.5406 2.60922 58.89 4.29603 58.89H45.9266" stroke="white" stroke-width="2" stroke-miterlimit="10" stroke-linecap="round" stroke-linejoin="round"/>
<path d="M7.10739 44.316V18.8339" stroke="white" stroke-width="2" stroke-miterlimit="10" stroke-linecap="round" stroke-linejoin="round"/>
<path d="M56.8796 10.3545H15.6089" stroke="white" stroke-width="2" stroke-miterlimit="10" stroke-linecap="round" stroke-linejoin="round"/>
<path d="M43.5201 52.8175H15.6089" stroke="white" stroke-width="2" stroke-miterlimit="10" stroke-linecap="round" stroke-linejoin="round"/>
<path d="M65.3587 24.9064V18.8339" stroke="white" stroke-width="2" stroke-miterlimit="10" stroke-linecap="round" stroke-linejoin="round"/>
<path d="M7.10742 18.8336C9.44647 18.8336 11.5831 17.889 13.1125 16.3371C14.6419 14.7852 15.609 12.6711 15.609 10.332" stroke="white" stroke-width="2" stroke-miterlimit="10" stroke-linecap="round" stroke-linejoin="round"/>
<path d="M7.10742 44.3164C9.44647 44.3164 11.5831 45.261 13.1125 46.8129C14.6419 48.3648 15.609 50.4789 15.609 52.818" stroke="white" stroke-width="2" stroke-miterlimit="10" stroke-linecap="round" stroke-linejoin="round"/>
<path d="M56.8799 10.3545C56.8799 15.0551 60.6808 18.856 65.3814 18.856" stroke="white" stroke-width="2" stroke-miterlimit="10" stroke-linecap="round" stroke-linejoin="round"/>
</svg>
