<svg width="80" height="80" viewBox="0 0 80 80" fill="none" xmlns="http://www.w3.org/2000/svg">
<path d="M40.0631 46.358L31.2509 51.0031L32.9464 41.1664L25.8087 34.1883L35.6675 32.738L40.0631 23.7841L44.4587 32.738L54.3174 34.1883L47.1798 41.1664L48.8752 51.0031L40.0631 46.358Z" stroke="#E76943" stroke-width="2" stroke-miterlimit="10" stroke-linecap="round" stroke-linejoin="round"/>
<path d="M61.8527 15.6289V41.8391C61.8527 52.7057 56.0756 62.7526 46.6983 68.1754L40.7329 71.6434L34.1185 68.0282C24.3435 62.7105 18.2734 52.4535 18.2734 41.2926V15.6289" stroke="white" stroke-width="2" stroke-miterlimit="10" stroke-linecap="round" stroke-linejoin="round"/>
<path d="M66.7088 31.922H78.8072L72.758 42.8727L78.8072 53.8234H65.4948" stroke="white" stroke-width="2" stroke-miterlimit="10" stroke-linecap="round" stroke-linejoin="round"/>
<path d="M13.4173 31.922H1.19336L7.36814 42.8727L1.19336 53.8234H14.6313" stroke="white" stroke-width="2" stroke-miterlimit="10" stroke-linecap="round" stroke-linejoin="round"/>
<path d="M18.2734 15.6714H24.5529C30.5393 15.6714 36.2326 13.002 40.0631 8.37793" stroke="white" stroke-width="2" stroke-miterlimit="10" stroke-linecap="round" stroke-linejoin="round"/>
<path d="M61.8527 15.6714H55.5733C49.5869 15.6714 43.8935 13.002 40.063 8.37793" stroke="white" stroke-width="2" stroke-miterlimit="10" stroke-linecap="round" stroke-linejoin="round"/>
</svg>
