<svg width="80" height="80" viewBox="0 0 80 80" fill="none" xmlns="http://www.w3.org/2000/svg">
<path d="M51.5821 29.1565C51.5821 29.1565 55.9771 32.6823 63.7829 29.309C75.1522 24.3763 75.2201 8.73047 67.1937 2.05176C67.1937 2.05176 66.7525 6.12001 60.1176 8.64571C54.7723 10.6798 45.9484 12.6292 47.3229 25.495" stroke="#E76943" stroke-width="2" stroke-miterlimit="10" stroke-linecap="round" stroke-linejoin="round"/>
<path d="M47.1794 38.9748C49.7944 26.3606 58.0925 22.0992 59.4871 21.5389" stroke="#E76943" stroke-width="2" stroke-miterlimit="10" stroke-linecap="round" stroke-linejoin="round"/>
<path d="M40.8034 32.1319C40.8034 32.1319 38.3982 35.6188 32.2367 34.7256C23.2581 33.4202 20.1609 21.929 24.5102 15.3848C24.5102 15.3848 25.614 18.2876 30.7705 18.8029C35.0703 19.2323 41.2647 17.1883 43.0769 28.5764" stroke="#E76943" stroke-width="2" stroke-miterlimit="10" stroke-linecap="round" stroke-linejoin="round"/>
<path d="M33.8462 28.7188C34.9087 28.9099 45.4143 32.5251 47.1795 38.9752" stroke="#E76943" stroke-width="2" stroke-miterlimit="10" stroke-linecap="round" stroke-linejoin="round"/>
<path d="M32.8205 44.0065C35.4888 40.9658 39.9529 38.9749 45.0043 38.9749C52.1198 38.9749 58.0607 42.9206 59.4872 48.2056" stroke="#E76943" stroke-width="2" stroke-miterlimit="10" stroke-linecap="round" stroke-linejoin="round"/>
<path d="M23.9594 78.9743L8.20514 59.8733L15.015 54.3589L30.7692 73.4599L23.9594 78.9743Z" stroke="white" stroke-width="2" stroke-miterlimit="10" stroke-linecap="round" stroke-linejoin="round"/>
<path d="M38.8657 59.4876H49.5889C50.6235 59.4876 51.5595 59.0637 52.2328 58.3951C52.9061 57.7266 53.333 56.7971 53.333 55.7699C53.333 54.7263 52.9061 53.7805 52.2 53.112C51.5267 52.4598 50.6071 52.0521 49.5889 52.0521H48.6201H46.0747H43.9892C42.8725 52.0521 41.7723 51.6934 40.8527 51.0412L39.736 50.2422C39.6703 50.1932 39.6211 50.1606 39.5554 50.128C38.7836 49.6062 37.8968 49.3127 36.9772 49.2475C36.8623 49.2312 36.7309 49.2312 36.6159 49.2312H33.151H29.5547C28.4709 49.2312 27.4035 49.5573 26.5167 50.1769L24.3819 51.6445L21.6888 53.5033L18.9957 55.3622L17.4356 56.4384" stroke="white" stroke-width="2" stroke-miterlimit="10" stroke-linecap="round" stroke-linejoin="round"/>
<path d="M28.718 70.7692L50.9686 69.8026C53.0458 69.7178 55.0399 69.0225 56.7349 67.7845L63.2988 63.0361C64.5451 62.1373 65.6086 60.9672 66.373 59.6105L72.8205 48.3671C71.2419 47.0952 69.0982 46.8239 67.2703 47.6549L67.2038 47.6888C65.4258 48.5028 63.897 49.7916 62.7836 51.4027L62.0691 52.4371C61.3545 53.4716 60.3076 54.2347 59.0946 54.5739L53.7105 56.1001" stroke="white" stroke-width="2" stroke-miterlimit="10" stroke-linecap="round" stroke-linejoin="round"/>
</svg>
