<svg width="80" height="80" viewBox="0 0 80 80" fill="none" xmlns="http://www.w3.org/2000/svg">
<path d="M28.3095 65.3655V65.6498C28.3095 68.0863 29.6811 70.3198 31.8596 71.3757L33.7153 72.2894L34.7036 74.2183C35.1877 75.1523 36.1358 75.7412 37.1846 75.7412H40.6137C41.6625 75.7412 42.6307 75.1523 43.0946 74.2183C43.7401 72.9797 44.7486 71.9645 46.0194 71.3757C48.2382 70.3198 49.6299 68.0863 49.6299 65.6092V60.4315" stroke="white" stroke-width="2" stroke-miterlimit="10" stroke-linecap="round" stroke-linejoin="round"/>
<path d="M51.284 56.2281C51.284 52.4515 52.7766 48.8373 55.4392 46.1977L56.1653 45.4667C61.0264 40.6342 63.7495 34.0555 63.7495 27.1723C63.7495 13.4058 52.6556 2.23828 38.9799 2.23828C25.3243 2.23828 14.2305 13.4058 14.2305 27.1723V27.7205C14.2305 34.2586 16.7115 40.5733 21.1692 45.3449L22.0365 46.2586C24.4772 48.8779 25.8488 52.3297 25.8488 55.9236V56.2078C25.8488 57.9134 26.8371 59.4566 28.3701 60.1672L28.5718 60.2484C35.0063 63.2332 42.4089 63.1926 48.803 60.1672C50.2956 59.4566 51.284 57.9134 51.284 56.2281Z" stroke="white" stroke-width="2" stroke-miterlimit="10" stroke-linecap="round" stroke-linejoin="round"/>
<path d="M22.9038 22.8274C22.9038 16.2893 28.1885 10.9695 34.6835 10.9695" stroke="white" stroke-width="2" stroke-miterlimit="10" stroke-linecap="round" stroke-linejoin="round"/>
<path d="M38.7579 48.2687C38.7579 48.2687 43.9015 48.5124 47.8347 41.7916C53.5834 31.9845 45.2327 20.3093 35.7323 19.7002C35.7323 19.7002 37.588 22.9692 34.0582 28.4109C31.2141 32.8169 25.7479 39.0301 33.6548 47.8423" stroke="#E76943" stroke-width="2" stroke-miterlimit="10" stroke-linecap="round" stroke-linejoin="round"/>
<path d="M40.2304 39.0713C39.5244 40.249 37.5275 45.3657 38.758 51.8835C38.8185 52.249 38.8991 52.5941 38.9798 52.919" stroke="#E76943" stroke-width="2" stroke-miterlimit="10" stroke-linecap="round" stroke-linejoin="round"/>
</svg>
