<svg width="80" height="80" viewBox="0 0 80 80" fill="none" xmlns="http://www.w3.org/2000/svg">
<path d="M41.9294 51.191L45.5406 56.4026" stroke="#E76943" stroke-width="2" stroke-linecap="round" stroke-linejoin="round"/>
<path d="M42.2472 29.037L46.3506 23.3895" stroke="#E76943" stroke-width="2" stroke-linecap="round" stroke-linejoin="round"/>
<path d="M20.875 40.0001H14.125" stroke="#E76943" stroke-width="2" stroke-linecap="round" stroke-linejoin="round"/>
<path d="M56.875 40.0001H47.875" stroke="#E76943" stroke-width="2" stroke-linecap="round" stroke-linejoin="round"/>
<path d="M26.6659 28.9161L21.5106 21.5107" stroke="#E76943" stroke-width="2" stroke-linecap="round" stroke-linejoin="round"/>
<path d="M26.6688 51.0842L21.5106 58.4895" stroke="#E76943" stroke-width="2" stroke-linecap="round" stroke-linejoin="round"/>
<path d="M9.625 44.5C12.1103 44.5 14.125 42.4853 14.125 40C14.125 37.5147 12.1103 35.5 9.625 35.5C7.13972 35.5 5.125 37.5147 5.125 40C5.125 42.4853 7.13972 44.5 9.625 44.5Z" stroke="#E76943" stroke-width="2" stroke-linecap="round" stroke-linejoin="round"/>
<path d="M47.875 64.75C50.3603 64.75 52.375 62.7353 52.375 60.25C52.375 57.7647 50.3603 55.75 47.875 55.75C45.3897 55.75 43.375 57.7647 43.375 60.25C43.375 62.7353 45.3897 64.75 47.875 64.75Z" stroke="#E76943" stroke-width="2" stroke-linecap="round" stroke-linejoin="round"/>
<path d="M49 24.25C51.4853 24.25 53.5 22.2353 53.5 19.75C53.5 17.2647 51.4853 15.25 49 15.25C46.5147 15.25 44.5 17.2647 44.5 19.75C44.5 22.2353 46.5147 24.25 49 24.25Z" stroke="#E76943" stroke-width="2" stroke-linecap="round" stroke-linejoin="round"/>
<path d="M65.875 49C70.8456 49 74.875 44.9706 74.875 40C74.875 35.0294 70.8456 31 65.875 31C60.9044 31 56.875 35.0294 56.875 40C56.875 44.9706 60.9044 49 65.875 49Z" stroke="white" stroke-width="2" stroke-linecap="round" stroke-linejoin="round"/>
<path d="M16.375 23.125C21.3456 23.125 25.375 19.0956 25.375 14.125C25.375 9.15444 21.3456 5.125 16.375 5.125C11.4044 5.125 7.375 9.15444 7.375 14.125C7.375 19.0956 11.4044 23.125 16.375 23.125Z" stroke="white" stroke-width="2" stroke-linecap="round" stroke-linejoin="round"/>
<path d="M16.375 74.875C21.3456 74.875 25.375 70.8456 25.375 65.875C25.375 60.9044 21.3456 56.875 16.375 56.875C11.4044 56.875 7.375 60.9044 7.375 65.875C7.375 70.8456 11.4044 74.875 16.375 74.875Z" stroke="white" stroke-width="2" stroke-linecap="round" stroke-linejoin="round"/>
<path d="M34.375 53.5C41.8308 53.5 47.875 47.4558 47.875 40C47.875 32.5442 41.8308 26.5 34.375 26.5C26.9192 26.5 20.875 32.5442 20.875 40C20.875 47.4558 26.9192 53.5 34.375 53.5Z" stroke="white" stroke-width="2" stroke-linecap="round" stroke-linejoin="round"/>
</svg>
