<svg width="80" height="80" viewBox="0 0 80 80" fill="none" xmlns="http://www.w3.org/2000/svg">
<g clip-path="url(#clip0_1982_50874)">
<path d="M27.5719 52.0996H2.71567V77.3326H27.5719V52.0996Z" stroke="white" stroke-width="2" stroke-linecap="round" stroke-linejoin="round"/>
<path d="M52.4281 38.0466H27.5719V77.334H52.4281V38.0466Z" stroke="#31353F" stroke-width="2" stroke-linecap="round" stroke-linejoin="round"/>
<path d="M77.2843 52.0996H52.4281V77.3326H77.2843V52.0996Z" stroke="white" stroke-width="2" stroke-linecap="round" stroke-linejoin="round"/>
<path d="M52.4281 38.0466H27.5719V77.334H52.4281V38.0466Z" stroke="white" stroke-width="2" stroke-linecap="round" stroke-linejoin="round"/>
<path d="M39.9992 2.66748L43.7843 12.0158L54.4877 12.483L46.1222 18.7286L48.9531 28.3662L39.9992 22.877L31.0469 28.3662L33.8778 18.7286L25.5123 12.483L36.2157 12.0158L39.9992 2.66748Z" stroke="#E76943" stroke-width="2" stroke-linecap="round" stroke-linejoin="round"/>
<path d="M15.143 24.7858L17.4316 30.4366L23.9013 30.7184L18.8454 34.4945L20.5567 40.3204L15.143 37.0025L9.73088 40.3204L11.4421 34.4945L6.38629 30.7184L12.856 30.4366L15.143 24.7858Z" stroke="#E76943" stroke-width="2" stroke-linecap="round" stroke-linejoin="round"/>
<path d="M64.8554 24.7858L67.144 30.4366L73.6137 30.7184L68.5579 34.4945L70.2691 40.3204L64.8554 37.0025L59.4433 40.3204L61.1546 34.4945L56.0988 30.7184L62.5685 30.4366L64.8554 24.7858Z" stroke="#E76943" stroke-width="2" stroke-linecap="round" stroke-linejoin="round"/>
</g>
<defs>
<clipPath id="clip0_1982_50874">
<rect width="76" height="76" fill="white" transform="translate(2 2)"/>
</clipPath>
</defs>
</svg>
