<svg width="80" height="80" viewBox="0 0 80 80" fill="none" xmlns="http://www.w3.org/2000/svg">
<path d="M41.5559 15.9034C45.161 16.4311 48.635 17.4386 51.931 19.0219C53.7008 19.8711 55.2739 21.0897 56.833 22.2747C58.584 23.6085 60.3678 24.8895 62.1095 26.2376C65.3915 28.7804 68.2288 31.7262 70.0219 35.5835C71.1362 37.9728 71.7543 40.4676 71.9509 43.1399C72.2458 47.1556 71.1784 50.8018 69.6521 54.4001C67.8823 58.5549 65.2885 62.0956 62.044 65.1277C58.7619 68.1934 55.0679 70.5635 50.6716 71.6238C47.8905 72.2955 45.1563 72.022 42.4689 71.168C38.5361 69.9206 35.0668 67.7472 31.7098 65.358C28.3857 62.9927 25.0662 60.6227 21.5454 58.5645C19.2091 57.2019 16.8026 55.9641 14.6396 54.2945C12.1581 52.3802 10.4212 49.9238 9.30217 46.9876C8.2862 44.3201 7.88355 41.5327 8.02869 38.6924C8.27215 33.9667 9.77036 29.7063 12.7387 26.0313C14.9486 23.3014 17.7109 21.2864 20.6558 19.4729C23.5305 17.7025 26.6253 16.4887 29.7996 15.4572C31.8175 14.7999 33.9056 14.4353 35.9891 14.1042C38.4939 13.7012 41.0081 13.3942 43.5598 13.399C47.0852 13.4086 50.4469 14.0851 53.6821 15.5148C56.3133 16.6806 58.7573 18.1247 60.7752 20.2453C60.8782 20.3556 60.9952 20.4564 61.0842 20.5763C61.1918 20.7299 61.351 20.893 61.2527 21.0993C61.1544 21.3152 60.9624 21.3919 60.7283 21.3967C60.0682 21.4111 59.5438 21.0561 59.0522 20.6915C57.54 19.5688 56.0417 18.4222 54.3375 17.6257C52.8534 16.9349 51.3551 16.2728 49.768 15.8506C49.5807 15.8026 49.3981 15.7451 49.2061 15.793C47.207 16.2824 45.2125 15.9945 43.2133 15.8026C42.6655 15.7499 42.1084 15.7786 41.5559 15.7642C40.3339 15.4764 39.0979 15.7259 37.8665 15.7067C39.1026 15.6683 40.3199 15.9274 41.5559 15.9034Z" fill="#E9EFE2"/>
<path d="M18.5229 32.308C18.418 29.0389 19.2862 25.928 21.099 23.109C22.3679 21.1357 23.7084 19.2167 25.402 17.5995C28.6268 14.5332 32.1331 11.9812 36.374 10.5915C38.7068 9.82984 41.0539 9.43913 43.482 9.44902C43.6776 9.44902 43.8828 9.43913 44.0593 9.50342C44.3694 9.61223 44.4791 9.54299 44.522 9.19679C44.584 8.69728 44.9132 8.50439 45.395 8.50439C47.0551 8.50439 48.6199 9.00391 50.2036 9.42429C52.67 10.0821 55.0027 11.1058 57.054 12.6489C58.0749 13.4155 59.091 14.2315 60.0165 15.1267C61.5287 16.5856 63.0648 18.0397 64.0857 19.9586C64.4817 20.7054 64.849 21.467 65.0923 22.2732C65.6791 24.2168 66.6045 26.0368 67.0863 28.0151C67.4966 29.6818 67.8162 31.3584 67.9069 33.0844C67.9593 34.0587 68.1406 35.0231 68.1692 36.0123C68.2503 38.6335 67.5395 41.0717 66.5616 43.411C65.307 46.4131 63.623 49.1826 61.6814 51.7544C59.9211 54.0838 57.5883 55.7406 55.2126 57.3529C52.3838 59.2669 49.2352 60.2758 46.0104 60.9633C42.4182 61.7298 38.8642 61.4331 35.4867 59.7071C33.6978 58.7921 32.1999 57.531 30.7115 56.1808C29.371 54.9691 28.0114 53.7574 26.5946 52.6298C25.8552 52.0412 25.235 51.2994 24.6959 50.5229C22.1246 46.8236 20.1544 42.8126 19.1526 38.3417C18.7185 36.403 18.4657 34.4346 18.5086 32.3179L18.5229 32.308Z" fill="#FDF5EE"/>
<path d="M17.9737 66.8287C17.1427 66.256 17.1665 65.7177 17.9021 65.0814C18.437 64.6165 19.0436 64.2102 19.5164 63.5838C18.1791 63.4027 18.5468 62.1253 17.926 61.3275C18.0501 61.3667 18.0024 61.3324 17.9737 61.3471C17.5916 61.5429 17.1713 61.6163 16.9277 61.215C16.6794 60.8137 16.7606 60.3144 17.1045 59.9963C17.5295 59.5999 17.6251 59.2426 17.4197 58.67C17.1713 57.9848 17.9355 56.9766 18.6376 56.9913C19.206 57.0011 19.6836 56.7906 20.1468 56.4921C20.3904 56.3354 21.9761 56.3697 22.1528 56.5557C22.511 56.9374 22.511 57.4024 22.3009 57.8526C22.1671 58.1414 22.1862 58.2687 22.5062 58.3763C22.96 58.5378 23.2322 59.0664 23.8006 59.0566C23.9725 59.0566 24.1301 59.2964 24.1062 59.5167C24.0585 59.9425 24.2448 60.2802 24.4645 60.657C25.2716 59.9816 25.8209 59.0566 26.6471 58.4057C27.0006 58.1267 26.843 57.6128 26.843 57.2017C26.843 56.8347 26.8382 56.4578 27.2728 56.3403C27.7313 56.218 27.9271 56.5459 28.1086 56.8983C28.6913 58.0435 28.6101 58.6357 27.6501 59.6831C24.8848 62.7077 21.8997 65.4974 18.8143 68.1648C17.8591 68.9919 16.7988 69.8141 15.3851 69.6526C15.194 69.6282 14.9982 69.6379 14.8167 69.545C14.4728 69.3639 14.0907 69.2317 14.1767 68.6934C14.2674 68.1158 14.683 68.1354 15.0651 68.1941C16.2973 68.3703 17.0567 67.5139 17.9833 66.8384L17.9737 66.8287Z" fill="#FDF5EE"/>
<path d="M41.5559 16.8816C40.3199 16.9056 39.1026 16.6465 37.8666 16.6849C39.0979 16.7088 40.3293 16.4546 41.5559 16.7424C41.5559 16.7856 41.5559 16.8336 41.5559 16.8768V16.8816Z" fill="#F5F3E6"/>
<path d="M51.5838 12.8412C53.6709 13.1495 55.5766 13.9522 57.382 15.0436C58.4423 15.6798 59.2733 16.5021 59.9372 17.6033C61.2077 19.7176 62.5832 21.7585 63.6674 23.9951C64.3312 25.3655 64.6178 26.7799 64.6847 28.2727C64.7515 29.7556 64.8853 31.2435 64.8184 32.7166C64.7229 34.7379 64.5509 36.7593 64.2023 38.761C63.4763 42.926 61.5229 46.5037 59.1157 49.8317C57.7402 51.7356 55.8202 53.0962 53.8763 54.3491C50.576 56.483 47.0417 58.0932 43.2303 58.979C41.4871 59.3853 39.7486 59.5468 37.9862 58.8273C36.4244 58.1862 34.8053 57.6772 33.2292 57.0556C32.7277 56.8549 32.2214 56.7179 31.6626 56.669C31.0083 56.6151 30.459 56.1893 29.9384 55.7929C27.2733 53.752 24.9474 51.393 23.4286 48.3145C22.1724 45.7646 21.3318 43.0679 20.8686 40.2537C20.4674 37.8017 20.2047 35.3301 20.348 32.8439C20.6393 27.7832 22.2202 23.261 25.8644 19.6735C29.9575 15.6407 34.8578 13.1936 40.4077 12.0875C41.8596 11.7987 43.3402 11.9406 44.8065 12.0679C44.9211 12.2098 45.0453 12.2147 45.1695 12.0875C45.6566 12.1266 46.1438 12.1658 46.6262 12.2049C46.736 12.342 46.8554 12.3469 46.9844 12.2294C47.3856 12.2686 47.7868 12.3028 48.188 12.342C48.2644 12.4447 48.3647 12.4447 48.4745 12.435C48.7706 12.4496 49.062 12.4594 49.3581 12.4741C49.425 12.5818 49.5014 12.5965 49.5874 12.4986C49.8596 12.5328 50.1271 12.572 50.3993 12.6063C50.5092 12.7482 50.6572 12.7139 50.8053 12.709C50.9724 12.7188 51.1444 12.7335 51.3115 12.7433C51.3784 12.8412 51.4787 12.851 51.5838 12.8412Z" fill="#BECEA9"/>
<path d="M11.3498 63.7704C11.2829 62.8454 11.7319 61.9693 12.2429 61.1079C13.4083 59.1453 14.8507 57.4079 16.3456 55.7145C17.4919 54.4126 18.705 53.1744 19.899 51.9214C20.1856 51.6229 20.5151 51.3684 20.8256 51.0894C21.2507 50.7028 21.6041 50.7664 22.1534 51.0111C24.3886 52.0193 25.4154 54.256 27.0393 55.8711C27.6316 56.4633 27.5408 57.3736 27.1778 58.0539C26.7145 58.9202 26.0459 59.6788 25.2769 60.3004C24.5271 60.9121 23.8919 60.8094 23.3283 60.0214C22.779 59.253 22.2489 58.465 21.7474 57.6624C21.1742 56.7423 20.3145 56.2626 19.345 55.9543C18.8435 55.7977 18.3802 55.8613 18.0029 56.3311C17.659 56.7569 17.2578 57.1387 16.8566 57.5106C16.5844 57.7651 16.5939 57.9903 16.742 58.328C17.5444 60.1976 18.8005 61.7637 19.9898 63.369C20.7253 64.3577 20.7348 64.7688 19.8751 65.6253C19.0059 66.4916 18.1557 67.3823 17.1098 68.0283C15.0369 69.3008 14.3874 69.203 12.7444 67.3921C11.8942 66.4573 11.3402 65.0673 11.3498 63.7704Z" fill="#7C9A57"/>
<path d="M45.1694 12.0874C45.0405 12.2147 44.9211 12.2098 44.8065 12.0679C44.9354 11.9357 45.0596 11.9161 45.1694 12.0874Z" fill="#BBCFA5"/>
<path d="M46.9846 12.229C46.8556 12.3464 46.7362 12.3415 46.6263 12.2045C46.7553 12.0674 46.8795 12.0479 46.9846 12.229Z" fill="#BBCFA5"/>
<path d="M50.8007 12.7088C50.6574 12.7088 50.5046 12.748 50.3947 12.6061C50.581 12.4201 50.7052 12.4984 50.8007 12.7088Z" fill="#BBCFA5"/>
<path d="M48.4793 12.4345C48.3695 12.4492 48.2644 12.4443 48.1927 12.3415C48.3551 12.1555 48.4077 12.317 48.4793 12.4345Z" fill="#BBCFA5"/>
<path d="M49.5877 12.4987C49.5017 12.6015 49.4253 12.5819 49.3584 12.4742C49.4491 12.3568 49.5256 12.3519 49.5877 12.4987Z" fill="#BBCFA5"/>
<path d="M51.5838 12.8405C51.4787 12.8503 51.3784 12.8405 51.3115 12.7427C51.4787 12.5616 51.5217 12.7231 51.5838 12.8405Z" fill="#BBCFA5"/>
<path d="M42.2421 48.4605C39.5866 48.2353 36.9263 48.0445 34.3281 47.369C33.1197 47.0558 32.5179 45.9693 32.666 44.687C32.7997 43.5173 33.0003 42.3818 33.3585 41.2611C34.0224 39.1712 35.4075 37.6834 37.1746 36.5822C38.4451 35.7942 39.7967 35.1335 41.306 34.8986C43.6988 34.5266 46.0726 34.5657 48.2887 35.6033C49.9842 36.3962 51.0206 37.884 51.7036 39.6753C52.2672 41.1632 52.7209 42.6706 52.9693 44.2514C53.1651 45.5043 52.3866 46.7817 51.1735 47.139C48.8045 47.8389 46.3926 48.2353 43.9233 48.3234C43.3645 48.343 42.8152 48.4996 42.2469 48.4605H42.2421Z" fill="#FDF5EE"/>
<path d="M37.4705 24.6798C37.609 22.9325 38.0962 21.3077 39.6484 20.3924C42.6669 18.6158 45.1648 20.1624 46.4114 22.7612C47.3619 24.7434 47.4287 26.7941 46.378 28.8692C45.3893 30.8171 42.8007 31.6541 40.9093 31.0619C39.8251 30.7242 39.0419 30.0683 38.5738 29.0259C37.9529 27.6506 37.5947 26.2019 37.4705 24.6749V24.6798Z" fill="#FDF5EE"/>
<path d="M32.8219 37.84C33.1085 37.8596 33.2183 37.6002 33.3759 37.4436C36.1127 34.6784 39.37 33.3227 43.2243 33.7925C45.6792 34.0911 47.518 35.4761 48.8219 37.6002C50.0637 39.6313 50.6607 41.8973 51.0333 44.2319C51.21 45.3527 50.7992 45.9008 49.6721 46.0476C47.1073 46.3902 44.5282 46.3609 41.9491 46.2434C38.7252 46.0966 35.5013 45.7442 32.2727 46.0379C32.0148 46.0623 31.7568 46.0966 31.5037 46.1455C31.3127 46.1798 31.1312 46.2434 30.8971 46.3022C31.1551 46.7965 31.5753 47.0363 31.9765 47.2614C32.6548 47.6481 33.3807 47.9613 34.0542 48.3577C35.0953 48.9695 35.2577 49.6058 34.6751 50.6678C33.7867 52.2927 32.8983 53.9225 31.9861 55.5327C31.733 55.9829 31.7234 56.1787 32.2774 56.3549C36.8291 57.8085 41.4524 58.43 46.1903 57.5833C49.247 57.0352 51.955 55.5914 54.3861 53.7169C59.1336 50.0658 62.281 45.2401 63.8333 39.3572C65.6768 32.3634 64.33 26.0596 59.9598 20.3774C58.0064 17.8324 55.8476 15.5175 53.4118 13.457C48.9318 9.67865 43.8404 8.88579 38.4243 10.4911C32.9127 12.1258 27.8786 14.7638 23.7759 19.0217C20.2225 22.7071 18.4076 27.1755 18.0016 32.2949C17.4428 39.3426 19.3819 45.5827 23.7473 51.0495C24.6643 52.1997 25.5574 53.3792 26.5318 54.4804C27.2052 55.239 27.2482 55.5571 26.5939 56.3206C25.3664 57.7546 24.1055 59.174 22.5294 60.2311C21.641 60.8282 21.1109 60.7744 20.3324 59.9962C19.5873 59.2523 18.8709 58.479 18.1306 57.7302C17.9682 57.5687 17.8249 57.3484 17.5288 57.3288C17.3568 57.8525 17.653 58.2196 17.9252 58.5769C18.6559 59.5263 19.2625 60.5346 19.6016 61.7092C19.8309 62.4971 19.7449 63.197 19.2386 63.8382C19.0046 64.1318 18.7801 64.4353 18.5127 64.6898C16.9222 66.2119 15.1885 67.5431 13.2924 68.6296C12.0362 69.3491 11.2864 69.2169 10.2356 68.2185C9.85356 67.8563 9.49535 67.4697 9.15147 67.0732C7.82371 65.5511 7.64699 64.0437 8.60699 62.2378C9.38072 60.7891 10.3933 59.5068 11.444 58.2636C13.5168 55.8116 15.6852 53.4477 18.0637 51.2943C18.3551 51.03 18.6703 50.7902 18.9807 50.5503C19.3437 50.2665 19.7449 50.1392 20.0792 50.5503C20.4136 50.9615 20.1843 51.353 19.8786 51.6662C19.2195 52.3416 18.5413 52.9975 17.8822 53.6729C15.3365 56.2815 12.8195 58.9195 10.6703 61.8903C10.2452 62.4776 9.83446 63.0747 9.65296 63.8088C9.49057 64.4597 9.59565 65.0421 9.97774 65.5707C10.4171 66.1825 10.9568 66.7013 11.4965 67.2152C11.7927 67.4941 12.1079 67.5333 12.447 67.3375C14.4052 66.1874 16.2679 64.8953 17.8679 63.2411C18.2548 62.8446 18.2882 62.4286 18.0924 61.9098C17.7389 60.9848 17.1849 60.1969 16.6118 59.4138C16.0673 58.6748 15.7712 57.8672 16.0243 56.9226C16.3777 55.611 17.4476 55.195 18.5318 55.9829C19.5109 56.6926 20.3228 57.5931 21.0822 58.5377C21.4356 58.9733 21.7079 58.9978 22.1473 58.6601C23.3031 57.7742 24.2249 56.6485 25.2661 55.6403C25.524 55.3907 25.3234 55.2586 25.1706 55.1069C24.0148 53.9274 23.0118 52.6157 22.0088 51.304C17.3855 45.2597 15.6422 38.3931 16.5162 30.8021C17.2756 24.2243 20.4995 19.1441 25.5765 15.1749C29.5646 12.0572 33.9921 9.83527 38.8255 8.61661C44.6571 7.14834 50.0398 8.27401 54.7347 12.2971C57.9873 15.0819 60.853 18.2289 63.0834 21.9191C65.9347 26.6469 66.9712 31.7565 66.0112 37.3017C64.6882 44.922 60.9819 50.9908 54.9115 55.5131C50.3407 58.9195 45.1777 60.2066 39.5419 59.5508C36.8004 59.2327 34.0876 58.8314 31.5037 57.784C30.367 57.3239 30.0136 56.6094 30.453 55.4201C31.0165 53.9029 31.8953 52.5423 32.6356 51.1132C33.3043 49.8309 33.3186 49.8407 32.0291 49.18C31.1885 48.7493 30.4052 48.2354 29.7652 47.5257C28.8148 46.4686 29.087 45.3233 30.3909 44.7898C31.3556 44.3934 32.3825 44.3542 33.3951 44.3151C36.084 44.2025 38.7682 44.3542 41.4524 44.506C43.9646 44.6479 46.4768 44.6381 48.9891 44.4375C49.3091 44.413 49.4046 44.3053 49.3425 43.9872C48.9365 41.9071 48.3825 39.8711 47.155 38.1239C45.6649 36.0047 43.5682 35.1727 41.0798 35.437C37.087 35.8579 34.2739 38.0554 32.4255 41.6428C32.2153 42.054 32.0195 42.4798 31.7855 42.8762C31.5706 43.2384 31.2506 43.488 30.8064 43.3411C30.3909 43.2041 30.1998 42.8664 30.1903 42.421C30.1712 41.5058 30.2189 40.5906 30.4339 39.7047C31.4225 35.6083 33.5479 32.4711 37.555 30.9343C39.0213 30.3714 40.4207 29.6667 41.6243 28.6144C42.2739 28.0467 42.9091 27.4349 43.2673 26.6518C44.4327 24.1068 43.9646 21.1997 40.9365 20.5438C38.8255 20.0838 36.1748 22.3302 36.0792 24.5277C36.0506 25.1493 36.2273 25.7121 36.5712 26.2211C37.0392 26.921 37.5694 27.5622 38.1998 28.1152C38.7395 28.5899 38.8351 29.0353 38.4959 29.4171C38.1664 29.7841 37.6745 29.7597 37.1682 29.3045C36.404 28.6095 35.7067 27.846 35.1574 26.9602C34.2786 25.5359 34.3312 24.0824 34.9807 22.5749C36.0362 20.1425 38.9831 18.4589 41.4046 18.9532C43.6494 19.4133 45.321 21.6744 45.3353 24.0089C45.3545 27.2489 43.4583 29.1724 41.1085 30.8119C40.1007 31.5118 38.9736 31.9816 37.8464 32.4564C35.5491 33.4205 33.9156 35.0846 32.9031 37.3996C32.8458 37.5268 32.7216 37.6589 32.8362 37.8302L32.8219 37.84ZM32.8315 37.9526C32.8028 37.9232 32.7789 37.8743 32.7503 37.8743C32.7121 37.8743 32.6548 37.8988 32.6404 37.9281C32.6118 38.0015 32.65 38.0505 32.7312 38.026C32.7694 38.0162 32.798 37.9771 32.8267 37.9575L32.8315 37.9526Z" fill="#4E6137"/>
<path d="M32.8317 37.9528C32.803 37.9773 32.7696 38.0116 32.7362 38.0214C32.655 38.0458 32.6215 37.9969 32.6454 37.9235C32.655 37.8941 32.7171 37.8696 32.7553 37.8696C32.7839 37.8696 32.8078 37.9186 32.8365 37.9479L32.8317 37.9528Z" fill="#FEFEFE"/>
</svg>
