<svg width="80" height="80" viewBox="0 0 80 80" fill="none" xmlns="http://www.w3.org/2000/svg">
<g clip-path="url(#clip0_1725_48710)">
<path d="M40.0929 79.9689C35.4629 80.1759 29.7748 79.3383 24.1681 77.7813C19.104 76.382 14.3021 74.2338 9.96146 71.0115C6.32615 68.3213 3.23342 65.0892 1.74131 60.4085C-0.971604 51.8649 -0.646053 43.5874 3.6494 35.6943C6.57031 30.3336 10.6126 26.3328 16.0203 24.096C17.9465 23.2978 19.9721 22.9726 22.0159 22.7065C23.7069 22.4799 25.407 22.3813 27.089 22.5291C28.5269 22.6572 29.9738 22.6375 31.4026 22.7459C35.6799 23.0514 39.5594 21.5634 43.4118 19.8193C47.7343 17.8583 52.0207 15.7692 56.6598 14.8331C62.5107 13.6506 67.6472 15.2075 72.0059 19.6714C75.0715 22.8149 77.5674 26.3723 78.9239 30.7771C80.1628 34.7975 80.1718 38.9067 79.7468 43.075C78.9962 50.3967 75.8221 56.6048 72.3948 62.7537C69.2568 68.3903 64.6268 72.0659 59.4722 75.101C56.3343 76.9536 53.0878 78.5401 49.552 79.3875C46.7939 80.0478 44.0357 79.8999 40.0929 79.9788V79.9689Z" fill="#E9EFE2"/>
<path d="M34.5851 61.4234C34.6032 62.3398 34.2596 63.1084 33.8255 63.8475C32.0892 66.7545 29.8556 69.149 27.3145 71.1987C25.2798 72.8345 24.3032 72.6276 22.2504 70.9425C18.7236 68.0454 15.5495 64.7245 12.2759 61.5219C9.87042 59.1668 7.85382 56.4471 5.81009 53.747C5.0776 52.7715 5.0776 51.7565 5.61114 50.6725C5.93669 50.0025 6.38884 49.4309 6.9043 48.9382C9.40018 46.5535 11.7062 43.9224 14.3739 41.7644C17.0054 39.6359 17.6203 39.6753 19.9896 41.8432C24.9723 46.4057 29.5391 51.451 33.1654 57.4128C33.9069 58.6248 34.5399 59.9059 34.5942 61.4234H34.5851Z" fill="#7C9A57"/>
<path d="M44.7756 23.9186C44.7756 23.4062 44.8027 22.8937 44.7756 22.3813C44.5404 18.824 46.2405 16.5181 48.8811 14.8331C49.6498 14.3403 50.5179 14.0447 51.3679 14.3699C53.8638 15.3061 57.1465 17.9962 57.3183 21.6127C57.3997 23.3766 57.3545 25.1602 57.2821 26.9241C57.2188 28.4515 57.0199 29.9789 56.9023 31.4964C56.7486 33.3194 56.3959 33.615 54.7681 33.2012C53.0138 32.7479 51.2866 32.6198 49.5684 33.418C48.4018 33.9599 47.0815 33.8318 45.8879 34.3245C45.4809 34.4921 45.2187 34.1866 45.1644 33.7037C45.1102 33.1913 45.0016 32.6888 45.0016 32.1862C44.9835 29.4369 45.0016 26.6777 45.0016 23.9284C44.9293 23.9284 44.8569 23.9284 44.7846 23.9284L44.7756 23.9186Z" fill="#7C9A57"/>
<path d="M58.1997 31.7132C58.2902 29.1906 58.6067 26.7073 59.1764 24.2536C59.4929 22.8544 60.1802 21.7113 61.2744 20.9229C62.875 19.7799 64.548 18.7649 66.4108 18.2032C67.704 17.809 68.7259 18.2525 69.4312 19.4153C70.6882 21.4649 70.9957 23.7905 70.7967 26.1949C70.7334 26.9241 70.2451 27.4858 69.7477 27.9391C67.6226 29.8606 65.7326 32.0088 64.0868 34.433C63.1915 35.7534 61.7989 36.1771 60.4153 36.4925C59.5471 36.6896 58.9684 36.2264 58.67 35.31C58.2992 34.1373 58.1907 32.9351 58.1997 31.7132Z" fill="#BECEA9"/>
<path d="M43.1869 27.0522C43.0784 28.826 42.8885 30.58 42.5901 32.3242C42.355 33.6939 41.9209 33.9797 40.7091 33.5559C40.1575 33.3687 39.624 33.1322 39.0995 32.8662C36.6759 31.595 34.0896 31.1515 31.44 31.0136C29.6947 30.9249 29.333 30.4716 29.6223 28.619C29.8303 27.269 29.8213 25.8894 30.1378 24.5493C30.6804 22.2631 31.9555 20.7456 34.0444 20.105C35.428 19.6813 36.7664 19.1098 38.2585 19.1295C40.8538 19.1689 42.8795 21.1791 43.0332 23.9876C43.0875 25.0124 43.1327 26.0274 43.1869 27.0522Z" fill="#BECEA9"/>
<path d="M26.5033 61.729C25.0745 61.7191 23.9441 60.5761 23.9351 59.1374C23.9261 57.4622 25.5086 55.6687 27.0369 55.6096C28.1582 55.5702 29.1349 56.664 29.1349 57.945C29.1349 60.0242 27.9502 61.7389 26.5033 61.7191V61.729Z" fill="#FDF5EE"/>
<path d="M54.1191 55.1168C50.5652 54.8113 47.3006 54.3876 44.018 54.4368C40.9253 54.4861 37.8054 54.5846 35.0744 56.5752C34.4052 57.0679 33.8626 56.723 33.4557 56.0135C31.7737 53.0671 29.6938 50.4558 27.5777 47.874C25.8686 45.7947 24.1142 43.7648 22.3599 41.725C21.8173 41.0943 21.7992 40.4341 22.2423 39.8133C24.6116 36.4727 27.6772 34.1964 31.5205 33.6939C33.9892 33.3687 36.4399 34.1964 38.7911 35.1621C41.0247 36.0786 43.2765 36.9162 45.7271 36.6698C47.6081 36.4826 49.3805 35.7829 51.2072 35.3789C52.1658 35.172 53.1153 35.0439 54.092 34.965C55.6564 34.8468 56.8139 35.4183 57.9262 36.66C59.5901 38.5224 62.0408 39.025 64.6543 36.1081C66.8246 33.684 68.9768 31.25 71.1291 28.8161C72.2685 27.5252 73.6792 26.7664 75.2527 26.3624C77.1246 25.8795 79.3402 27.3971 79.5391 29.2891C79.6477 30.3238 79.3854 31.2895 78.879 32.196C77.9204 33.9304 76.6815 35.4183 75.4155 36.8669C71.6084 41.2323 67.7741 45.5583 63.9218 49.8744C61.7967 52.2591 59.355 54.0919 56.2894 54.7226C55.4755 54.8901 54.6617 55.0084 54.1191 55.0971V55.1168Z" fill="#FDF5EE"/>
<path d="M50.4217 14.2221C47.8263 14.5571 46.1262 12.3202 45.1677 9.6005C43.5037 4.90007 46.7592 -0.0959778 51.3802 0.00256358C51.8595 0.0124177 52.3026 0.120813 52.7367 0.337604C56.363 2.20004 57.5205 6.85119 55.3321 10.8618C54.2107 12.9213 52.8181 14.5473 50.4307 14.2122L50.4217 14.2221Z" fill="#FDF5EE"/>
<path d="M70.1611 12.0345C70.2516 14.4389 69.51 16.2521 68.0812 17.7302C66.9056 18.9423 65.4406 19.1394 63.9395 18.8733C63.0081 18.7058 62.583 17.6415 61.8958 17.0404C59.8882 15.2766 58.5589 11.7783 59.6802 8.55603C61.1633 4.30889 65.6758 4.0724 68.253 6.9498C69.5281 8.3688 70.4324 10.1031 70.1702 12.0345H70.1611Z" fill="#FDF5EE"/>
<path d="M41.9469 11.798C42.0012 13.217 41.7661 14.5276 41.2144 15.7397C40.3192 17.7401 38.9446 18.9718 36.7653 18.7156C34.7667 18.4791 33.3741 17.1587 32.7501 15.247C32.0357 13.0199 31.9091 10.655 33.0757 8.42792C33.9438 6.76257 35.2822 5.84614 36.9371 5.50124C38.6914 5.12678 40.1293 5.96439 40.9884 7.68886C41.6304 8.98961 42.0554 10.3495 41.9469 11.798Z" fill="#FDF5EE"/>
<path d="M50.1766 14.6064C51.2075 15.1386 52.1751 15.6313 53.1337 16.1437C55.2226 17.2572 56.1902 19.1295 56.2716 21.6324C56.362 24.5493 56.0275 27.4464 56.0908 30.3632C56.7328 28.5008 56.561 26.5004 56.8865 24.5887C57.0222 23.8201 57.1398 23.0416 57.3297 22.2927C57.7999 20.5091 58.8851 19.5236 60.6213 19.4153C61.191 19.3758 61.7608 19.2576 62.3757 19.0014C61.8783 18.8142 61.3719 18.6269 60.8745 18.4298C58.4329 17.4838 57.194 15.4637 56.8323 12.7933C56.4796 10.1819 57.3568 7.97459 59.1563 6.25997C60.5399 4.93952 62.1677 4.89025 63.8407 5.58004C67.06 6.90049 68.5973 10.2608 67.8829 14.3502C67.6478 15.6904 67.2318 16.9419 66.3908 17.9568C65.9839 18.4495 66.1285 18.6171 66.5626 18.8733C68.9319 20.2529 69.4835 22.6967 69.7096 25.3277C69.7548 25.85 69.6011 26.3132 69.0585 26.3723C68.525 26.4314 68.3079 25.988 68.2085 25.4953C68.0457 24.6872 67.9462 23.8693 67.7382 23.081C67.4398 21.9576 66.852 21.051 65.9025 20.4105C65.1067 19.8685 64.3923 19.6715 63.5061 20.2331C62.7645 20.7061 61.8693 20.785 61.0011 20.8638C59.2649 21.0313 58.7132 21.5437 58.4329 23.4259C58.1435 25.3277 57.9988 27.2493 57.7547 29.1511C57.6733 29.772 57.5467 30.3928 57.3477 30.9742C57.0312 31.8906 56.3892 32.1665 55.521 31.9596C54.671 31.7526 54.472 31.1811 54.4992 30.3139C54.5987 27.5942 54.7795 24.8843 54.7343 22.1646C54.6981 19.9375 53.9204 18.3017 51.9942 17.3952C50.8729 16.863 49.7606 16.3112 48.6483 15.7397C48.2595 15.5426 47.9068 15.5426 47.5089 15.7002C45.23 16.6364 43.9007 18.6269 43.9097 21.3072C43.9097 23.5441 44.2624 25.781 43.8917 28.0278C43.7831 28.6781 43.6475 29.3285 43.5299 29.9789C43.3581 30.9052 42.7703 31.3683 41.9926 31.6048C41.025 31.8906 40.4463 31.4373 40.4191 30.3336C40.383 28.7176 40.6 27.1113 40.4372 25.4953C40.2925 24.0368 39.8404 22.7262 39.0084 21.6127C38.3121 20.6766 37.6519 19.839 36.2141 20.4992C35.0204 21.051 33.6007 20.9624 32.3165 21.4058C30.9963 21.8591 29.8207 22.4503 29.5765 24.1649C29.5584 24.3128 29.4499 24.4606 29.4408 24.6084C29.2781 27.673 27.3971 29.496 25.4619 31.3191C24.6842 32.0483 23.8613 32.7578 23.3368 33.8516C23.8522 34.0585 24.0512 33.6446 24.2953 33.418C28.0392 30.0183 32.2352 29.3778 36.7929 30.984C37.4801 31.2205 38.2217 31.3683 38.8275 31.7625C42.9602 34.4428 47.2919 33.7432 51.6506 32.7676C53.0071 32.4621 54.3545 32.4129 55.6929 33.0435C57.2121 33.7629 58.0802 34.9946 58.0893 36.7585C58.0983 38.552 57.6009 40.1681 56.0365 41.1633C55.521 41.4885 54.879 41.5476 54.3997 42.0699C55.9822 42.2276 57.4201 41.4393 58.0531 40.0991C58.2159 39.7542 58.3606 39.3896 58.46 39.0151C58.9031 37.3596 59.6899 36.0983 61.2543 35.3987C63.6688 34.3147 65.2695 32.1468 66.8701 29.9986C68.4526 27.88 70.1708 25.8993 72.739 25.1996C74.4934 24.7266 76.8988 25.7909 77.8755 27.4365C78.4995 28.4811 78.5628 29.5749 77.8212 30.511C72.4406 37.3498 67.2861 44.4448 60.3229 49.5492C59.8165 49.9237 59.292 50.2784 58.7765 50.6332C56.0184 52.5449 52.8895 52.6138 49.7968 52.6336C47.2738 52.6533 44.7417 52.4463 42.2187 52.2985C39.7771 52.1507 37.4711 52.5744 35.346 53.954C34.7582 54.3383 34.1071 54.6044 33.5193 54.9788C32.4884 55.6391 31.6293 55.4814 30.8244 54.5157C27.5418 50.5839 23.9788 46.9379 20.5515 43.1539C19.819 42.3458 19.1046 41.5181 18.2184 40.8776C16.9524 39.9611 15.7587 40.0005 14.4836 40.8579C12.1686 42.4148 10.1339 44.3758 8.054 46.2579C6.86031 47.3419 5.69376 48.4554 4.75328 49.8251C3.46012 51.7171 3.38778 52.4562 4.85275 54.1314C8.94022 58.8121 12.7021 63.818 17.0338 68.2425C20.3345 71.6126 21.5824 71.6323 24.856 68.2425C26.7912 66.2323 28.6903 64.1826 30.4627 61.9851C30.8877 61.4629 31.2766 60.8716 31.575 60.2508C32.2352 58.8712 32.0543 58.3687 30.8968 57.4621C30.0467 56.8019 29.269 56.0726 28.1567 55.8953C27.4062 55.777 27.3067 55.8953 27.5056 56.7033C28.0482 58.9303 27.2524 60.6253 25.48 61.2559C24.3315 61.6599 22.9298 61.3446 22.2878 60.4577C21.492 59.3639 21.6457 58.1814 22.1612 57.0088C22.6224 55.9643 23.4724 55.3533 24.4491 54.7325C23.6352 53.8949 22.8394 53.1263 22.0979 52.2985C19.8462 49.7956 17.6216 47.263 15.3789 44.7502C15.2794 44.6418 15.1799 44.5236 15.0895 44.3955C14.8725 44.0802 14.8092 43.7254 15.0624 43.4199C15.3337 43.0947 15.6683 43.2031 15.9305 43.4495C16.5002 43.9915 17.0699 44.5433 17.6035 45.1247C19.4573 47.1744 21.3202 49.2043 23.1288 51.3032C24.0331 52.3478 25.1906 53.0277 26.0949 54.0427C26.3481 54.3285 26.6827 54.2792 27.0083 54.2792C28.6541 54.2595 30.1552 54.6832 31.367 55.984C31.566 56.2008 31.8192 56.4077 32.0814 56.5062C33.5012 57.0581 33.7001 58.1814 33.3655 60.0537C33.2299 60.7829 32.9134 61.4727 32.4703 62.0541C29.9744 65.3355 27.2796 68.4199 24.1868 71.0214C21.7542 73.0612 19.6924 72.8937 17.3231 70.7258C15.3065 68.8732 13.4256 66.8531 11.6622 64.7049C8.98544 61.453 6.29964 58.2011 3.66811 54.9099C2.16696 53.0376 2.11271 51.4116 3.36065 49.3423C3.92132 48.416 4.59051 47.5882 5.32299 46.8196C7.52046 44.5334 9.8174 42.3655 12.2862 40.4243C15.822 37.6356 17.4678 37.7538 20.6058 41.1141C24.214 44.9769 27.9849 48.682 31.3489 52.8011C32.1266 53.7471 32.7054 54.0033 33.7363 53.1952C37.236 50.4459 41.2421 50.5543 45.2933 50.8992C48.793 51.1948 52.2927 51.1751 55.7652 50.4853C56.8594 50.2686 57.7728 49.6083 58.659 48.9481C63.2167 45.5484 67.2951 41.5674 70.8219 36.9162C72.3411 34.9158 73.9689 33.014 75.4881 31.0234C76.094 30.2252 77.36 29.6143 76.5552 28.1953C75.9222 27.0621 74.0322 26.392 72.7752 26.8453C70.9576 27.5055 69.6463 28.9245 68.4436 30.4519C67.6478 31.4669 66.9334 32.5508 66.1376 33.5559C64.7631 35.3001 62.9816 36.4333 61.0554 37.2611C60.5128 37.4877 60.2144 37.7834 60.1059 38.3943C59.4276 42.1192 57.0945 43.5875 53.8481 43.9126C50.2489 44.2772 46.6498 44.6123 43.0326 44.494C42.5352 44.4743 41.9384 44.5433 41.8751 43.7648C41.8118 43.0258 42.3724 42.8878 42.8608 42.7499C45.8631 41.8925 48.9648 41.5575 52.0033 40.8776C52.8443 40.6903 53.6943 40.4637 54.5082 40.1681C55.9822 39.6359 56.8052 38.1972 56.6062 36.6304C56.4253 35.2016 55.3492 34.3246 53.7034 34.2162C51.9671 34.0979 50.3665 34.837 48.6845 35.0538C45.3566 35.4676 42.1554 35.576 38.9903 33.7629C36.2774 32.2158 33.2841 31.3979 30.0829 32.0778C27.7317 32.5804 25.9231 34.0191 24.2411 35.7041C23.2644 36.6896 22.3692 37.7735 21.4287 38.8181C21.0579 39.2319 20.6962 39.833 20.0722 39.4389C19.4392 39.0447 19.6924 38.4042 19.8733 37.8622C20.7324 35.2509 21.8989 32.8267 23.8251 30.9249C24.1687 30.58 24.4762 30.1661 24.856 29.8803C26.8093 28.4219 27.8854 26.3821 28.1839 23.8595C28.4099 21.9379 29.5403 20.9131 31.0686 20.243C32.1357 19.7799 33.2299 19.435 34.6044 19.2773C33.6187 18.7353 32.8139 18.3313 32.0995 17.7598C30.0739 16.1141 29.2329 13.2466 29.9834 10.4775C30.6797 7.91547 32.8953 5.92493 35.2646 5.72785C37.9865 5.50121 40.7718 8.89103 40.4824 12.0049C40.2744 14.2418 39.3882 16.1338 38.1403 17.8682C37.9865 18.0849 37.5253 18.3214 38.077 18.6762C41.4862 20.8244 42.1735 24.3128 42.0197 28.215C41.9926 28.7964 41.8389 29.3778 42.0197 30.1168C42.6708 29.0822 42.6618 27.9785 42.7251 26.934C42.8155 25.4854 42.7794 24.027 42.6256 22.5686C42.273 19.0802 43.2948 16.2816 46.3785 14.5867C45.9354 14.2024 45.5646 13.9068 45.2119 13.5915C40.9074 9.69907 41.9564 2.58438 47.1562 0.377054C50.9995 -1.25873 55.5572 2.69278 55.0327 7.12714C54.6258 10.5564 52.772 12.8031 50.1404 14.5769L50.1766 14.6064ZM44.1087 7.52131C44.0906 8.36876 44.1901 9.23592 44.5699 9.92571C46.6317 13.69 48.5669 15.0105 51.6235 11.4334C52.0847 10.8914 52.5187 10.2903 52.8624 9.6498C54.0561 7.43262 53.7848 4.6439 52.2655 3.25446C50.8277 1.94386 49.2542 1.24422 47.3823 2.14094C45.221 3.17563 44.2443 5.02821 44.0997 7.51145L44.1087 7.52131ZM66.5265 12.6356C66.6892 10.4381 65.8663 8.62497 63.9492 7.51145C62.8821 6.89064 61.7246 6.46691 60.5671 7.30451C58.8941 8.49686 58.234 10.2608 58.3967 12.3695C58.5505 14.3207 59.3463 15.917 61.1006 16.7054C62.0592 17.1291 63.0901 17.3952 64.0758 17.7598C64.546 17.9371 64.8264 17.6612 65.1067 17.3459C66.2461 16.0747 66.5445 14.498 66.5265 12.6455V12.6356ZM31.3399 12.3597C31.3399 15.178 33.4831 17.7499 35.9971 17.947C36.2322 17.9667 36.404 17.9174 36.5577 17.7105C37.869 16.0451 38.9361 14.2517 39.0808 11.9754C39.2254 9.5217 37.0461 7.19612 35.0023 7.59028C32.9676 7.98445 31.3489 10.0834 31.3489 12.3597H31.3399ZM26.2306 57.9055C26.0226 57.3438 26.2306 56.3486 25.4167 56.1613C24.5938 55.9741 23.2644 57.6986 23.2373 58.7431C23.2192 59.7482 23.8794 59.8961 24.5395 59.9158C25.4529 59.9552 26.2215 59.0289 26.2306 57.8957V57.9055ZM54.2641 42.0798C53.9747 42.1586 53.631 41.9221 53.3959 42.3163C53.7215 42.3557 54.0289 42.4345 54.2641 42.0798ZM23.2554 34.1373C23.2554 34.1373 23.2102 34.0881 23.183 34.0585C23.165 34.1078 23.1288 34.1472 23.1197 34.1965C23.1197 34.2162 23.1559 34.2457 23.183 34.2654C23.2102 34.2162 23.2283 34.1768 23.2554 34.1275V34.1373Z" fill="#4E6137"/>
<path d="M54.2558 42.0797C54.0207 42.4345 53.7223 42.3557 53.3877 42.3162C53.6228 41.9221 53.9665 42.1487 54.2558 42.0797Z" fill="#FEFEFE"/>
<path d="M23.246 34.1472C23.246 34.1472 23.2008 34.2359 23.1737 34.2852C23.1556 34.2654 23.1104 34.2359 23.1104 34.2162C23.1194 34.1669 23.1465 34.1176 23.1737 34.0782C23.1917 34.0979 23.2189 34.1275 23.246 34.157V34.1472Z" fill="#FEFEFE"/>
</g>
<defs>
<clipPath id="clip0_1725_48710">
<rect width="80" height="80" fill="white"/>
</clipPath>
</defs>
</svg>
