<svg width="40" height="40" viewBox="0 0 40 40" fill="none" xmlns="http://www.w3.org/2000/svg">
<path fill-rule="evenodd" clip-rule="evenodd" d="M16.0191 5.62036C10.2578 7.21185 5.89504 12.1731 5.18493 18.25H11.6734C12.0529 13.7316 13.553 9.39272 16.0191 5.62036ZM20 1.58325C9.8288 1.58325 1.58337 9.82867 1.58337 19.9999C1.58337 30.1712 9.8288 38.4166 20 38.4166C30.1713 38.4166 38.4167 30.1712 38.4167 20V19.9999C38.4167 9.82867 30.1713 1.58325 20 1.58325ZM23.981 5.62036C26.447 9.39272 27.9472 13.7316 28.3266 18.25H34.8151C34.105 12.1731 29.7423 7.21185 23.981 5.62036ZM24.8125 18.25C24.3844 13.8128 22.7156 9.58575 20 6.05422C17.2845 9.58575 15.6156 13.8128 15.1876 18.25H24.8125ZM15.1876 21.75H24.8125C24.3844 26.1871 22.7156 30.4141 20 33.9456C17.2845 30.4141 15.6157 26.1871 15.1876 21.75ZM11.6735 21.75H5.18495C5.89512 27.8269 10.2578 32.788 16.0191 34.3795C13.5531 30.6072 12.0529 26.2684 11.6735 21.75ZM23.981 34.3795C26.447 30.6072 27.9472 26.2684 28.3266 21.75H34.8151C34.105 27.8269 29.7423 32.788 23.981 34.3795Z" fill="url(#paint0_linear_12_523)"/>
<defs>
<linearGradient id="paint0_linear_12_523" x1="20" y1="1.58325" x2="20" y2="38.4166" gradientUnits="userSpaceOnUse">
<stop stop-color="#F3AC97"/>
<stop offset="1" stop-color="#E76943"/>
</linearGradient>
</defs>
</svg>
