<svg width="24" height="24" viewBox="0 0 24 24" fill="none" xmlns="http://www.w3.org/2000/svg">
<path d="M3.39842 8.15513C3.01465 8.4323 2.92824 8.96808 3.2054 9.35185C3.48256 9.73561 4.01835 9.82203 4.40212 9.54487L3.39842 8.15513ZM12.0003 3L12.5021 2.30513C12.2025 2.08877 11.798 2.08877 11.4984 2.30513L12.0003 3ZM19.5984 9.54487C19.9822 9.82203 20.518 9.73561 20.7951 9.35185C21.0723 8.96808 20.9859 8.4323 20.6021 8.15513L19.5984 9.54487ZM4.40212 9.54487L12.5021 3.69487L11.4984 2.30513L3.39842 8.15513L4.40212 9.54487ZM11.4984 3.69487L19.5984 9.54487L20.6021 8.15513L12.5021 2.30513L11.4984 3.69487Z" fill="#657E47"/>
<path d="M4.80042 12.9L12.0004 7.5L19.2004 12.9V21.9H4.80042V12.9Z" fill="#657E47"/>
<path d="M12.0001 12.9023V18.3023" stroke="white" stroke-width="0.857143" stroke-linecap="round"/>
<path d="M9.30042 15.6006H14.7004" stroke="white" stroke-width="0.857143" stroke-linecap="round"/>
</svg>
