<svg width="40" height="40" viewBox="0 0 40 40" fill="none" xmlns="http://www.w3.org/2000/svg">
<path d="M36.669 16.1167C36.5638 15.8118 36.3723 15.544 36.1179 15.3458C35.8635 15.1476 35.557 15.0275 35.2357 15L25.7524 13.6167L21.5024 5C21.3659 4.71821 21.1528 4.48057 20.8875 4.31429C20.6222 4.14801 20.3155 4.05981 20.0024 4.05981C19.6893 4.05981 19.3825 4.14801 19.1172 4.31429C18.8519 4.48057 18.6388 4.71821 18.5024 5L14.2524 13.6L4.76903 15C4.46057 15.0438 4.17057 15.1733 3.93195 15.3736C3.69332 15.5739 3.51563 15.8371 3.41903 16.1333C3.3306 16.4228 3.32267 16.7309 3.39608 17.0245C3.46948 17.3181 3.62146 17.5862 3.8357 17.8L10.719 24.4667L9.05236 33.9333C8.98507 34.2474 9.00995 34.5742 9.124 34.8744C9.23806 35.1746 9.43642 35.4355 9.69525 35.6257C9.95407 35.8158 10.2623 35.9271 10.5829 35.9462C10.9035 35.9653 11.2228 35.8914 11.5024 35.7333L20.0024 31.2833L28.5024 35.7333C28.7363 35.8653 29.0005 35.9342 29.269 35.9333C29.6221 35.9346 29.9664 35.8237 30.2524 35.6167C30.5109 35.4314 30.7111 35.1761 30.8292 34.8807C30.9474 34.5854 30.9785 34.2625 30.919 33.95L29.2524 24.4833L36.1357 17.8167C36.3763 17.6128 36.5542 17.3448 36.6486 17.0439C36.743 16.743 36.7501 16.4215 36.669 16.1167ZM26.419 22.7833C26.2261 22.9707 26.0814 23.2019 25.9972 23.4573C25.9131 23.7127 25.892 23.9847 25.9357 24.25L27.1357 31.25L20.869 27.9167C20.6255 27.7962 20.3574 27.7335 20.0857 27.7335C19.814 27.7335 19.5459 27.7962 19.3024 27.9167L13.0357 31.25L14.2357 24.25C14.2794 23.9847 14.2583 23.7127 14.1741 23.4573C14.09 23.2019 13.9453 22.9707 13.7524 22.7833L8.75236 17.7833L15.769 16.7667C16.039 16.7291 16.2957 16.6259 16.5165 16.4661C16.7374 16.3063 16.9156 16.0947 17.0357 15.85L20.0024 9.5L23.1357 15.8667C23.2558 16.1114 23.434 16.3229 23.6549 16.4828C23.8757 16.6426 24.1324 16.7458 24.4024 16.7833L31.419 17.8L26.419 22.7833Z" fill="url(#paint0_linear_12_13)"/>
<defs>
<linearGradient id="paint0_linear_12_13" x1="20.0357" y1="4.05981" x2="20.0357" y2="35.9492" gradientUnits="userSpaceOnUse">
<stop stop-color="#F3AC97"/>
<stop offset="1" stop-color="#E76943"/>
</linearGradient>
</defs>
</svg>
